<svg width="50" height="33" viewBox="0 0 50 33" fill="none" xmlns="http://www.w3.org/2000/svg">
<path d="M14.1432 25.502C13.2511 25.502 12.5253 26.2408 12.5253 27.149C12.5253 28.0572 13.2511 28.796 14.1432 28.796C15.0354 28.796 15.7612 28.0572 15.7612 27.149C15.7612 26.2408 15.0354 25.502 14.1432 25.502Z" fill="#3680DB"/>
<path d="M41.7013 25.502C40.8092 25.502 40.0834 26.2408 40.0834 27.149C40.0834 28.0572 40.8092 28.796 41.7013 28.796C42.5935 28.796 43.3193 28.0572 43.3193 27.149C43.3193 26.2408 42.5935 25.502 41.7013 25.502Z" fill="#3680DB"/>
<path d="M32.5161 22.1018H20.825C20.3927 22.1018 20.0421 22.4586 20.0421 22.8988C20.0421 23.339 20.3926 23.6957 20.825 23.6957H32.5161C32.9484 23.6957 33.299 23.339 33.299 22.8988C33.299 22.4586 32.9485 22.1018 32.5161 22.1018Z" fill="#3680DB"/>
<path d="M4.03179 18.416C3.81889 18.416 3.61163 18.5114 3.46171 18.6771C3.31091 18.8429 3.22534 19.0728 3.22534 19.3071C3.22534 19.5415 3.31091 19.7714 3.46171 19.9371C3.61163 20.1038 3.81897 20.1982 4.03179 20.1982C4.24389 20.1982 4.45115 20.1038 4.60196 19.9371C4.75196 19.7714 4.83824 19.5415 4.83824 19.3071C4.83824 19.0728 4.75204 18.8429 4.60196 18.6771C4.45115 18.5114 4.24381 18.416 4.03179 18.416Z" fill="#3680DB"/>
<path d="M46.4999 13.649L45.2051 8.37681C45.5591 8.30026 45.8247 7.98056 45.8247 7.59754V6.74749C45.8247 4.90186 44.3496 3.40039 42.5366 3.40039H36.6389V1.64701C36.6389 0.738809 35.9132 0 35.021 0H4.95821C4.06602 0 3.34024 0.738809 3.34024 1.64701V16.0981C3.34024 16.5382 3.69073 16.8951 4.12315 16.8951C4.55548 16.8951 4.90606 16.5383 4.90606 16.0981V1.64701C4.90606 1.61768 4.9294 1.59393 4.95821 1.59393H35.0209C35.0497 1.59393 35.073 1.61768 35.073 1.64701V16.0983C35.073 16.5384 35.4235 16.8953 35.8559 16.8953C36.2883 16.8953 36.6388 16.5385 36.6388 16.0983V15.1949H45.8741C45.8749 15.1949 45.8755 15.1951 45.8762 15.1951C45.8769 15.1951 45.8776 15.195 45.8783 15.195C47.0147 15.1958 47.9797 15.9551 48.3111 17.0013H45.8768C45.4444 17.0013 45.0938 17.3581 45.0938 17.7983V19.4984C45.0938 20.8753 46.1942 21.9955 47.5469 21.9955H48.4342V25.5019H46.3871C45.7146 23.5254 43.8688 22.1016 41.7014 22.1016C39.5339 22.1016 37.688 23.5254 37.0156 25.5019H36.6386V19.4983C36.6386 19.0582 36.2882 18.7013 35.8557 18.7013C35.4234 18.7013 35.0728 19.0581 35.0728 19.4983V25.5017H18.8298C18.1574 23.5252 16.3116 22.1014 14.1441 22.1014C11.9766 22.1014 10.1307 23.5252 9.45832 25.5017H4.95821C4.9294 25.5017 4.90606 25.478 4.90606 25.4486V23.6954H8.29855C8.73088 23.6954 9.08146 23.3386 9.08146 22.8984C9.08146 22.4582 8.73097 22.1014 8.29855 22.1014H0.782912C0.350587 22.1014 0 22.4582 0 22.8984C0 23.3386 0.350489 23.6954 0.782912 23.6954H3.34034V25.4486C3.34034 26.3568 4.06612 27.0956 4.95831 27.0956H9.18723C9.18703 27.1133 9.18586 27.1309 9.18586 27.1487C9.18586 29.9318 11.4102 32.1959 14.1441 32.1959C16.878 32.1959 19.1023 29.9318 19.1023 27.1487C19.1023 27.1308 19.1011 27.1133 19.1009 27.0956H36.7445C36.7443 27.1133 36.7431 27.1309 36.7431 27.1487C36.7431 29.9318 38.9675 32.1959 41.7014 32.1959C44.4352 32.1959 46.6596 29.9318 46.6596 27.1487C46.6596 27.1308 46.6584 27.1133 46.6582 27.0956H49.2171C49.6494 27.0956 50 26.7389 50 26.2987V17.7981C50.0001 15.6994 48.4789 13.9556 46.4999 13.649ZM36.6389 4.99421H42.5366C43.4863 4.99421 44.259 5.78074 44.259 6.74749V6.80058H36.6389V4.99421ZM36.6389 13.6011V8.3944H43.5955L44.8742 13.6011H36.6389ZM14.1441 30.6023C12.2735 30.6023 10.7516 29.0532 10.7516 27.1489C10.7516 25.2446 12.2735 23.6956 14.1441 23.6956C16.0147 23.6956 17.5366 25.2446 17.5366 27.1489C17.5366 29.0532 16.0147 30.6023 14.1441 30.6023ZM41.7015 30.6023C39.8309 30.6023 38.3091 29.0532 38.3091 27.1489C38.3091 25.2446 39.8309 23.6956 41.7015 23.6956C43.5722 23.6956 45.094 25.2446 45.094 27.1489C45.094 29.0532 43.5722 30.6023 41.7015 30.6023ZM48.4344 20.4015H47.5471C47.0578 20.4015 46.6598 19.9963 46.6598 19.4983V18.5951H48.4343V20.4015H48.4344Z" fill="#3680DB"/>
</svg>
