<svg width="40" height="40" viewBox="0 0 40 40" fill="none" xmlns="http://www.w3.org/2000/svg">
<path d="M22.8125 16.4062H17.1875C16.756 16.4062 16.4062 16.7561 16.4062 17.1875V22.8125C16.4062 23.2439 16.756 23.5938 17.1875 23.5938H22.8125C23.244 23.5938 23.5938 23.2439 23.5938 22.8125V17.1875C23.5938 16.7561 23.244 16.4062 22.8125 16.4062ZM22.0312 22.0312H17.9688V17.9688H22.0312V22.0312Z" fill="#3680DB"/>
<path d="M37.3438 4.21875C35.8791 4.21875 34.6875 5.41031 34.6875 6.875C34.6875 8.33969 35.8791 9.53125 37.3438 9.53125C38.8084 9.53125 40 8.33969 40 6.875C40 5.41031 38.8084 4.21875 37.3438 4.21875ZM37.3438 7.96875C36.7406 7.96875 36.25 7.47813 36.25 6.875C36.25 6.27187 36.7406 5.78125 37.3438 5.78125C37.9469 5.78125 38.4375 6.27187 38.4375 6.875C38.4375 7.47813 37.9469 7.96875 37.3438 7.96875Z" fill="#3680DB"/>
<path d="M33.3272 6.32022C33.1819 6.17498 32.9804 6.09131 32.7749 6.09131C32.5687 6.09131 32.3671 6.1749 32.2218 6.32022C32.0765 6.46553 31.9937 6.66709 31.9937 6.87256C31.9937 7.07803 32.0765 7.27959 32.2218 7.4249C32.3679 7.57014 32.5687 7.65381 32.7749 7.65381C32.9804 7.65381 33.1819 7.57022 33.3272 7.4249C33.4726 7.27959 33.5562 7.07803 33.5562 6.87256C33.5562 6.66709 33.4726 6.46553 33.3272 6.32022Z" fill="#3680DB"/>
<path d="M32.4637 20.7812C32.7981 21.8659 33.8097 22.6562 35.0025 22.6562C36.4672 22.6562 37.6588 21.4647 37.6588 20C37.6588 18.5353 36.4671 17.3438 35.0025 17.3438C33.8096 17.3438 32.7981 18.1341 32.4637 19.2188H27.6563V13.125C27.6563 12.6936 27.3066 12.3438 26.8751 12.3438H25.6251V7.65391H30.0018C30.4333 7.65391 30.7831 7.30406 30.7831 6.87266C30.7831 6.44125 30.4333 6.09141 30.0018 6.09141H24.8438C24.4124 6.09141 24.0626 6.44125 24.0626 6.87266V12.3438H20.7813V7.53648C21.8659 7.20203 22.6563 6.19055 22.6563 4.99766C22.6563 3.53297 21.4648 2.34141 20.0001 2.34141C18.5354 2.34141 17.3438 3.53297 17.3438 4.99766C17.3438 6.19055 18.1343 7.20211 19.2188 7.53648V12.3438H13.1251C12.6936 12.3438 12.3439 12.6936 12.3439 13.125V14.375H7.65393V5.19578C8.73971 4.86211 9.53135 3.85 9.53135 2.65625C9.53135 1.19156 8.33979 0 6.8751 0C5.41041 0 4.21885 1.19156 4.21885 2.65625C4.21885 3.84828 5.00815 4.85922 6.09143 5.19437V15.1562C6.09143 15.5877 6.4412 15.9375 6.87268 15.9375H12.3439V19.2188H7.53651C7.20205 18.1341 6.19049 17.3438 4.99768 17.3438C3.53299 17.3438 2.34143 18.5353 2.34143 20C2.34143 21.4647 3.53299 22.6562 4.99768 22.6562C6.19057 22.6562 7.20213 21.8659 7.53651 20.7812H12.3439V26.875C12.3439 27.3064 12.6936 27.6562 13.1251 27.6562H14.3751V32.3461H9.99838C9.5669 32.3461 9.21713 32.6959 9.21713 33.1273C9.21713 33.5588 9.5669 33.9086 9.99838 33.9086H15.1564C15.5878 33.9086 15.9376 33.5588 15.9376 33.1273V27.6562H19.2188V32.4635C18.1343 32.798 17.3438 33.8095 17.3438 35.0023C17.3438 36.467 18.5354 37.6586 20.0001 37.6586C21.4648 37.6586 22.6563 36.467 22.6563 35.0023C22.6563 33.8095 21.8659 32.7979 20.7813 32.4635V27.6562H26.8751C27.3066 27.6562 27.6563 27.3064 27.6563 26.875V25.625H32.3463V34.8042C31.2605 35.1379 30.4688 36.15 30.4688 37.3438C30.4688 38.8084 31.6604 40 33.1251 40C34.5898 40 35.7813 38.8084 35.7813 37.3438C35.7813 36.1517 34.9921 35.1408 33.9088 34.8056V24.8438C33.9088 24.4123 33.559 24.0625 33.1275 24.0625H27.6563V20.7812H32.4637ZM35.0025 18.9062C35.6056 18.9062 36.0963 19.3969 36.0963 20C36.0963 20.6031 35.6056 21.0938 35.0025 21.0938C34.3994 21.0938 33.9088 20.6031 33.9088 20C33.9088 19.3969 34.3994 18.9062 35.0025 18.9062ZM6.8751 3.75C6.27198 3.75 5.78135 3.25937 5.78135 2.65625C5.78135 2.05312 6.27198 1.5625 6.8751 1.5625C7.47823 1.5625 7.96885 2.05312 7.96885 2.65625C7.96885 3.25937 7.47823 3.75 6.8751 3.75ZM4.99768 21.0938C4.39456 21.0938 3.90393 20.6031 3.90393 20C3.90393 19.3969 4.39456 18.9062 4.99768 18.9062C5.60081 18.9062 6.09143 19.3969 6.09143 20C6.09143 20.6031 5.60081 21.0938 4.99768 21.0938ZM18.9063 4.99766C18.9063 4.39453 19.397 3.90391 20.0001 3.90391C20.6032 3.90391 21.0938 4.39453 21.0938 4.99766C21.0938 5.60078 20.6032 6.09141 20.0001 6.09141C19.397 6.09141 18.9063 5.60078 18.9063 4.99766ZM21.0938 35.0023C21.0938 35.6055 20.6032 36.0961 20.0001 36.0961C19.397 36.0961 18.9063 35.6055 18.9063 35.0023C18.9063 34.3992 19.397 33.9086 20.0001 33.9086C20.6032 33.9086 21.0938 34.3992 21.0938 35.0023ZM26.0938 26.0938H13.9064V13.9062H26.0938V26.0938ZM33.1251 36.25C33.7282 36.25 34.2188 36.7406 34.2188 37.3438C34.2188 37.9469 33.7282 38.4375 33.1251 38.4375C32.522 38.4375 32.0313 37.9469 32.0313 37.3438C32.0313 36.7406 32.522 36.25 33.1251 36.25Z" fill="#3680DB"/>
<path d="M2.65625 30.4688C1.19156 30.4688 0 31.6603 0 33.125C0 34.5897 1.19156 35.7812 2.65625 35.7812C4.12094 35.7812 5.3125 34.5897 5.3125 33.125C5.3125 31.6603 4.12094 30.4688 2.65625 30.4688ZM2.65625 34.2188C2.05312 34.2188 1.5625 33.7281 1.5625 33.125C1.5625 32.5219 2.05312 32.0312 2.65625 32.0312C3.25938 32.0312 3.75 32.5219 3.75 33.125C3.75 33.7281 3.25938 34.2188 2.65625 34.2188Z" fill="#3680DB"/>
<path d="M7.77891 32.575C7.63359 32.4297 7.43203 32.3461 7.22656 32.3461C7.02109 32.3461 6.81953 32.4296 6.67422 32.575C6.52891 32.7203 6.44531 32.9218 6.44531 33.1274C6.44531 33.3328 6.52891 33.5344 6.67422 33.6796C6.81953 33.825 7.02109 33.9086 7.22656 33.9086C7.43203 33.9086 7.63359 33.825 7.77891 33.6796C7.92422 33.5344 8.00781 33.3328 8.00781 33.1274C8.00781 32.9218 7.92422 32.7203 7.77891 32.575Z" fill="#3680DB"/>
</svg>
