<svg width="40" height="40" viewBox="0 0 40 40" fill="none" xmlns="http://www.w3.org/2000/svg">
<path d="M24.1164 15.1983L27.855 11.4604C28.3248 10.9907 28.3248 10.2292 27.855 9.75944L27.1777 9.08288L29.7855 6.47502C30.2551 6.00552 30.2551 5.24416 29.7855 4.77458C29.316 4.30508 28.5547 4.30508 28.0851 4.77458L25.4776 7.38204L25.4775 7.38188L22.7552 4.66043L25.3631 2.05257C25.8327 1.58307 25.8327 0.821705 25.3631 0.352125C24.8936 -0.117375 24.1322 -0.117375 23.6626 0.352125L21.0552 2.95959L21.055 2.95942L20.3777 2.28287C19.9069 1.81048 19.1436 1.81513 18.6775 2.28287L14.9388 6.02164C12.6616 8.29883 12.4619 11.7918 14.1676 14.2701L2.56361 25.8741C2.09387 26.3431 2.09387 27.1046 2.56361 27.5744C3.03094 28.0416 3.79271 28.0454 4.26381 27.5744L15.8678 15.9703C18.3405 17.6682 21.8291 17.4856 24.1164 15.1983ZM16.6398 7.72184L19.528 4.83366L25.3043 10.61L22.4162 13.4982C20.8283 15.0844 18.2461 15.1046 16.6398 13.4982C15.0375 11.8959 15.0477 9.31214 16.6398 7.72184Z" fill="#3680DB"/>
<path d="M37.4367 12.4255C36.9669 11.9558 36.2062 11.9558 35.7365 12.4255L24.1324 24.0296C21.6598 22.3317 18.1712 22.5142 15.8839 24.8015L12.1452 28.5394C11.6755 29.0091 11.6755 29.7707 12.1452 30.2405L12.8226 30.917V30.917L10.2147 33.5249C9.74515 33.9944 9.74515 34.7558 10.2147 35.2254C10.6843 35.6949 11.4456 35.6949 11.9152 35.2254L14.5226 32.6179L14.5228 32.6181L17.2451 35.3394V35.3395L14.6372 37.9474C14.1676 38.4169 14.1676 39.1782 14.6372 39.6478C15.1068 40.1174 15.8681 40.1173 16.3376 39.6478L18.9451 37.0403L18.9453 37.0405L19.6226 37.717C20.0934 38.1894 20.8567 38.1847 21.3228 37.717L25.0615 33.9783C27.3413 31.6984 27.5367 28.2055 25.8326 25.7298L37.4367 14.1258C37.9064 13.6569 37.9064 12.8954 37.4367 12.4255ZM23.3605 32.2781L20.4723 35.1663C19.6851 34.379 15.4866 30.1805 14.6959 29.3898L17.5841 26.5016C19.1885 24.8991 21.7695 24.9107 23.3605 26.5016C24.9628 28.1041 24.9525 30.6878 23.3605 32.2781Z" fill="#3680DB"/>
</svg>
