<svg width="40" height="40" viewBox="0 0 40 40" fill="none" xmlns="http://www.w3.org/2000/svg">
<g clip-path="url(#clip0)">
<path d="M7.03522 30.9335C6.47522 30.9335 5.93689 31.0733 5.45929 31.3358C2.94342 28.1107 1.5625 24.1043 1.5625 20C1.5625 9.83337 9.83337 1.5625 20 1.5625C21.236 1.5625 22.4713 1.68549 23.6719 1.9281C24.0942 2.01355 24.5068 1.74011 24.5923 1.31714C24.6777 0.894165 24.4043 0.482178 23.9813 0.396423C22.6791 0.133362 21.3397 0 20 0C14.6579 0 9.63531 2.08038 5.85785 5.85785C2.08038 9.63531 0 14.6579 0 20C0 24.4937 1.52588 28.8791 4.30389 32.3947C3.94623 32.9291 3.75397 33.5571 3.75397 34.2148C3.75397 35.0912 4.09546 35.9152 4.71527 36.5347C5.33478 37.1545 6.15875 37.496 7.03522 37.496C7.91168 37.496 8.73566 37.1545 9.35547 36.5347C9.97528 35.9152 10.3165 35.0909 10.3165 34.2145C10.3165 33.3383 9.97528 32.514 9.35547 31.8945C8.73566 31.2747 7.91168 30.9335 7.03522 30.9335ZM8.25043 35.43C7.92603 35.7547 7.4942 35.9335 7.03522 35.9335C6.57623 35.9335 6.14471 35.7547 5.82001 35.43C5.4953 35.1053 5.31647 34.6738 5.31647 34.2148C5.31647 33.7555 5.4953 33.324 5.82001 32.9993C6.14441 32.6746 6.57623 32.496 7.03522 32.496C7.4942 32.496 7.92572 32.6749 8.25043 32.9993C8.57513 33.324 8.75397 33.7555 8.75397 34.2148C8.75397 34.6738 8.57513 35.1053 8.25043 35.43Z" fill="#3680DB"/>
<path d="M35.6954 7.60437C36.5447 6.33026 36.4083 4.58832 35.285 3.46497C34.6651 2.84546 33.8412 2.50397 32.9647 2.50397C32.0882 2.50397 31.2643 2.84546 30.6444 3.46497C30.0246 4.08478 29.6835 4.90875 29.6835 5.78522C29.6835 6.66168 30.0246 7.48566 30.6444 8.10547C31.2643 8.72528 32.0882 9.06647 32.9647 9.06647C33.5247 9.06647 34.063 8.9267 34.5406 8.66425C37.0565 11.8896 38.4374 15.8957 38.4374 20C38.4374 30.1666 30.1665 38.4375 19.9999 38.4375C18.7762 38.4375 17.5524 38.317 16.3631 38.0789C15.9402 37.9944 15.5285 38.2687 15.4436 38.6917C15.3591 39.115 15.6335 39.5264 16.0564 39.6112C17.3464 39.8691 18.6733 40 19.9999 40C25.342 40 30.3646 37.9196 34.1421 34.1422C37.9195 30.3647 39.9999 25.3421 39.9999 20C39.9999 15.506 38.4737 11.1203 35.6954 7.60437ZM31.7495 7.00073C31.4248 6.67603 31.246 6.24451 31.246 5.78522C31.246 5.32623 31.4248 4.89471 31.7495 4.57001C32.0739 4.2453 32.5057 4.06647 32.9647 4.06647C33.4237 4.06647 33.8555 4.2453 34.1802 4.57001C34.8501 5.24017 34.8501 6.33057 34.1802 7.00073C33.8555 7.32513 33.4237 7.50397 32.9647 7.50397C32.5054 7.50397 32.0739 7.32513 31.7495 7.00073Z" fill="#3680DB"/>
<path d="M16.776 33.4375C16.776 33.869 17.126 34.2188 17.5573 34.2188H22.4422C22.8737 34.2188 23.2234 33.869 23.2234 33.4375V31.9229C24.2507 31.6464 25.2327 31.2393 26.1556 30.7077L27.2249 31.777C27.3714 31.9235 27.5701 32.0059 27.7776 32.0059C27.9845 32.0059 28.1835 31.9235 28.33 31.7767L31.7827 28.3215C32.0876 28.0164 32.0876 27.5217 31.7827 27.2168L30.7146 26.1487C31.2462 25.2258 31.6533 24.2438 31.9298 23.2166H33.4386C33.8701 23.2166 34.2198 22.8668 34.2198 22.4353V17.5504C34.2198 17.1188 33.8701 16.7691 33.4386 16.7691H31.9295C31.653 15.7422 31.2462 14.7601 30.7146 13.8373L31.7769 12.775C31.9234 12.6285 32.0058 12.4295 32.0058 12.2223C32.0055 12.0151 31.9231 11.8161 31.7766 11.6696L28.3211 8.21686C28.0162 7.91199 27.5215 7.91199 27.2164 8.21716L26.1556 9.27826C25.2327 8.74664 24.2507 8.33954 23.2234 8.06305V6.5625C23.2234 6.13098 22.8737 5.78125 22.4422 5.78125H17.5573C17.126 5.78125 16.776 6.13098 16.776 6.5625V8.06335C15.7491 8.33954 14.767 8.74664 13.8442 9.27826L12.7831 8.21716C12.4782 7.91229 11.9835 7.91199 11.6783 8.21686L8.22315 11.6699C8.07636 11.8164 7.99396 12.0151 7.99396 12.2223C7.99396 12.4295 8.07636 12.6285 8.22284 12.775L9.28516 13.8373C8.75354 14.7601 8.34644 15.7419 8.06995 16.7691H6.5639C6.13239 16.7691 5.78265 17.1188 5.78265 17.55L5.77991 22.435C5.7796 22.6422 5.862 22.8412 6.00848 22.9877C6.15497 23.1342 6.35364 23.2166 6.56116 23.2166H8.06995C8.34644 24.2438 8.75354 25.2258 9.28516 26.1487L8.21704 27.2168C7.91217 27.5217 7.91187 28.0164 8.21704 28.3215L11.6698 31.7767C11.8163 31.9232 12.015 32.0059 12.2222 32.0059H12.2225C12.4297 32.0059 12.6284 31.9235 12.7748 31.777L13.8439 30.7077C14.767 31.2393 15.7491 31.6464 16.776 31.9229V33.4375ZM14.1503 29.0646C13.8411 28.8647 13.4343 28.9081 13.1737 29.1684L12.2225 30.1196L9.87415 27.7695L10.8245 26.8188C11.0848 26.5585 11.1281 26.1517 10.9282 25.8426C10.2199 24.7464 9.72186 23.5449 9.44843 22.2711C9.37091 21.9113 9.05292 21.6541 8.68457 21.6541H7.34271L7.34454 18.3316H8.68457C9.05292 18.3316 9.37091 18.0746 9.44843 17.7145C9.72186 16.441 10.2199 15.2396 10.9282 14.1434C11.1281 13.8342 11.0848 13.4274 10.8245 13.1671L9.88025 12.2226L12.2304 9.87427L13.1737 10.8179C13.4343 11.0782 13.8408 11.1212 14.1503 10.9216C15.2462 10.2133 16.4476 9.71527 17.7214 9.44183C18.0812 9.36432 18.3385 9.04602 18.3385 8.67798V7.34375H21.6609V8.67767C21.6609 9.04602 21.9179 9.36432 22.278 9.44153C23.5515 9.71527 24.7533 10.213 25.8492 10.9213C26.1583 11.1212 26.5651 11.0782 26.8254 10.8176L27.769 9.87427L30.1192 12.2226L29.175 13.1668C28.9144 13.4274 28.8713 13.8342 29.0712 14.1434C29.7795 15.2396 30.2773 16.441 30.551 17.7145C30.6282 18.0746 30.9465 18.3316 31.3149 18.3316H32.6573V21.6541H31.3149C30.9465 21.6541 30.6285 21.9113 30.551 22.2711C30.2776 23.5446 29.7795 24.7464 29.0712 25.8423C28.8713 26.1517 28.9147 26.5585 29.175 26.8188L30.1253 27.7692L27.777 30.1193L26.8257 29.1684C26.5651 28.9078 26.1583 28.8647 25.8492 29.0646C24.753 29.7729 23.5515 30.2707 22.278 30.5444C21.9179 30.6219 21.6609 30.9399 21.6609 31.3083V32.6562H18.3385V31.3083C18.3385 30.9402 18.0812 30.6219 17.7214 30.5444C16.4479 30.271 15.2465 29.7729 14.1503 29.0646Z" fill="#3680DB"/>
<path d="M26.4554 20C26.4554 16.4404 23.5596 13.5446 20.0001 13.5446C16.4405 13.5446 13.5447 16.4404 13.5447 20C13.5447 23.5596 16.4405 26.4554 20.0001 26.4554C23.5596 26.4554 26.4554 23.5596 26.4554 20ZM15.1072 20C15.1072 17.3019 17.302 15.1071 20.0001 15.1071C22.6981 15.1071 24.8929 17.3022 24.8929 20C24.8929 22.6978 22.6981 24.8929 20.0001 24.8929C17.302 24.8929 15.1072 22.6981 15.1072 20Z" fill="#3680DB"/>
<path d="M27.1937 2.95471C27.3994 2.95471 27.6008 2.87109 27.7461 2.72583C27.8914 2.57965 27.975 2.37823 27.975 2.17255C27.975 1.96808 27.8917 1.76636 27.7461 1.62018C27.6008 1.47491 27.3994 1.3913 27.1937 1.3913C26.9874 1.3913 26.7869 1.47491 26.6417 1.62018C26.4961 1.76636 26.4125 1.96716 26.4125 2.17255C26.4125 2.37885 26.4961 2.57965 26.6417 2.72583C26.7869 2.87109 26.9874 2.95471 27.1937 2.95471Z" fill="#3680DB"/>
<path d="M12.8406 37.0594C12.6352 37.0594 12.4335 37.143 12.2882 37.2883C12.1429 37.4335 12.0593 37.6353 12.0593 37.8406C12.0593 38.0469 12.1429 38.2477 12.2882 38.393C12.4335 38.5383 12.6352 38.6219 12.8406 38.6219C13.046 38.6219 13.2477 38.5383 13.3929 38.393C13.5382 38.2477 13.6218 38.046 13.6218 37.8406C13.6218 37.6353 13.5382 37.4335 13.3929 37.2883C13.2477 37.143 13.046 37.0594 12.8406 37.0594Z" fill="#3680DB"/>
</g>
<defs>
<clipPath id="clip0">
<rect width="40" height="40" fill="white"/>
</clipPath>
</defs>
</svg>
