<svg width="40" height="40" viewBox="0 0 40 40" fill="none" xmlns="http://www.w3.org/2000/svg">
<g clip-path="url(#clip0)">
<path d="M37.6563 9.84386H30.6251V9.06261C30.6251 8.63183 30.9756 8.28136 31.4063 8.28136H36.0938C37.1304 8.24011 37.1296 6.75972 36.0938 6.71887H31.4063C30.114 6.71887 29.0626 7.77027 29.0626 9.06261V9.84386H25.7032V5.93762C25.7032 5.50684 26.0537 5.15637 26.4845 5.15637H31.172C32.2085 5.11512 32.2077 3.63473 31.172 3.59387H26.4845C25.1921 3.59387 24.1407 4.64528 24.1407 5.93762V9.84386H20.7814V4.37512C20.7401 3.33856 19.2597 3.33934 19.2189 4.37512V9.84386H15.8595V5.93762C15.8595 4.64528 14.8081 3.59387 13.5158 3.59387H8.82826C7.7917 3.63512 7.79248 5.11551 8.82826 5.15637H13.5158C13.9465 5.15637 14.297 5.50684 14.297 5.93762V9.84386H10.9376V9.06261C10.9376 7.77027 9.88623 6.71887 8.59389 6.71887H3.90624C2.86968 6.76012 2.87046 8.2405 3.90624 8.28136H8.59373C9.02451 8.28136 9.37498 8.63183 9.37498 9.06261V9.84386H2.34375C1.0514 9.84386 0 10.8953 0 12.1876V34.0626C0 35.3549 1.0514 36.4063 2.34375 36.4063H37.6563C38.9487 36.4063 40.0001 35.3549 40.0001 34.0626V12.1876C40 10.8953 38.9487 9.84386 37.6563 9.84386ZM38.4375 34.0626C38.4375 34.4933 38.087 34.8438 37.6563 34.8438H2.34375C1.91296 34.8438 1.5625 34.4933 1.5625 34.0626V12.1876C1.5625 11.7568 1.91296 11.4064 2.34375 11.4064H37.6563C38.0871 11.4064 38.4376 11.7568 38.4376 12.1876V34.0626H38.4375Z" fill="#3680DB"/>
<path d="M36.0938 14.5314H3.90625C3.47477 14.5314 3.125 14.8811 3.125 15.3126V30.9376C3.125 31.3691 3.47477 31.7189 3.90625 31.7189H36.0938C36.5253 31.7189 36.8751 31.3691 36.8751 30.9376V15.3126C36.8751 14.8811 36.5253 14.5314 36.0938 14.5314ZM35.3126 30.1563H4.6875V16.0938H35.3126V30.1563Z" fill="#3680DB"/>
<path d="M17.4653 24.1017H19.2188V26.4454C19.2601 27.482 20.7405 27.4812 20.7813 26.4454V24.1017H22.5348C22.9663 24.1017 23.316 23.7519 23.316 23.3204V19.8048C23.316 19.3733 22.9663 19.0236 22.5348 19.0236H17.4653C17.0338 19.0236 16.6841 19.3733 16.6841 19.8048V23.3204C16.6841 23.7519 17.0338 24.1017 17.4653 24.1017ZM18.2466 20.5861H21.7535V22.5392H18.2466V20.5861Z" fill="#3680DB"/>
<path d="M26.3369 24.1017H28.0904V26.4454C28.1317 27.482 29.6121 27.4812 29.6529 26.4454V24.1017H31.4064C31.8379 24.1017 32.1876 23.7519 32.1876 23.3204V19.8048C32.1876 19.3733 31.8379 19.0236 31.4064 19.0236H26.3369C25.9054 19.0236 25.5557 19.3733 25.5557 19.8048V23.3204C25.5557 23.7519 25.9054 24.1017 26.3369 24.1017ZM27.1182 20.5861H30.6251V22.5392H27.1182V20.5861Z" fill="#3680DB"/>
<path d="M8.59375 24.1017H10.3472V26.4454C10.3884 27.482 11.8688 27.4812 11.9097 26.4454V24.1017H13.6632C14.0947 24.1017 14.4445 23.7519 14.4445 23.3204V19.8048C14.4445 19.3733 14.0947 19.0236 13.6632 19.0236H8.59375C8.16227 19.0236 7.8125 19.3733 7.8125 19.8048V23.3204C7.8125 23.7519 8.16234 24.1017 8.59375 24.1017ZM9.375 20.5861H12.882V22.5392H9.375V20.5861Z" fill="#3680DB"/>
</g>
<defs>
<clipPath id="clip0">
<rect width="40" height="40" fill="white"/>
</clipPath>
</defs>
</svg>
