<svg width="36" height="36" viewBox="0 0 36 36" fill="none" xmlns="http://www.w3.org/2000/svg">
<g clip-path="url(#clip0)">
<path d="M9.83104 16.0389H20.1972C20.4885 16.0389 20.7245 15.8029 20.7245 15.5116C20.7245 15.2203 20.4885 14.9843 20.1972 14.9843H9.83104C9.53981 14.9843 9.30371 15.2203 9.30371 15.5116C9.30371 15.8029 9.53981 16.0389 9.83104 16.0389Z" fill="#3680DB"/>
<path d="M9.83104 18.6588H20.1972C20.4885 18.6588 20.7245 18.4228 20.7245 18.1315C20.7245 17.8402 20.4885 17.6041 20.1972 17.6041H9.83104C9.53981 17.6041 9.30371 17.8402 9.30371 18.1315C9.30371 18.4228 9.53981 18.6588 9.83104 18.6588Z" fill="#3680DB"/>
<path d="M9.83104 21.2788H16.1073C16.3986 21.2788 16.6347 21.0427 16.6347 20.7515C16.6347 20.4602 16.3986 20.2241 16.1073 20.2241H9.83104C9.53981 20.2241 9.30371 20.4602 9.30371 20.7515C9.30371 21.0427 9.53981 21.2788 9.83104 21.2788Z" fill="#3680DB"/>
<path d="M19.822 26.7907C19.6889 26.7627 19.5503 26.6633 19.4774 26.5436C19.4476 26.4948 19.4161 26.4223 19.435 26.3537C19.5077 26.089 19.3651 25.8128 19.1072 25.7187C18.8494 25.6247 18.5625 25.7441 18.4475 25.9934C18.3602 26.1829 18.2554 26.3944 18.1158 26.5061C18.0361 26.5699 17.9442 26.5801 17.9231 26.5706C17.8989 26.5555 17.8264 26.3917 17.9434 25.9151C17.9894 25.7276 17.9293 25.5299 17.7866 25.3998C17.6496 25.2748 17.4576 25.2314 17.2809 25.284C17.1094 25.3165 16.4582 25.3292 15.7431 25.3307C15.8302 24.8823 15.9021 24.4314 15.9584 23.9795C15.9944 23.6905 15.7893 23.427 15.5003 23.391C15.2109 23.3551 14.9478 23.5601 14.9118 23.8492C14.8503 24.3433 14.769 24.8364 14.6687 25.3258C14.1872 25.3205 13.7797 25.3119 13.5978 25.3029C12.9347 25.2704 12.2877 25.2603 11.6667 25.4901C11.2095 25.6593 10.8457 26.0031 10.6687 26.4333C10.4836 26.883 10.505 27.364 10.7305 27.8245C11.0826 28.5436 11.8432 29.0321 12.4406 29.1972C12.6422 29.253 12.8482 29.2801 13.0517 29.2801C13.6189 29.2801 14.1671 29.0703 14.5476 28.6867C14.9311 28.3 15.1068 27.7951 15.2414 27.3524C15.3384 27.0331 15.4276 26.7108 15.5088 26.3862C15.974 26.3869 16.4448 26.3828 16.8271 26.3676C16.8292 26.7946 16.9592 27.2135 17.367 27.4667C17.7799 27.723 18.3391 27.6711 18.7632 27.3389C18.9869 27.5812 19.2858 27.7556 19.6046 27.8228C20.1568 27.9392 20.7664 27.7982 21.4165 27.4038C21.6655 27.2527 21.7449 26.9284 21.5938 26.6794C21.4427 26.4304 21.1183 26.3511 20.8694 26.5022C20.4558 26.753 20.1035 26.8499 19.822 26.7907ZM14.2323 27.0456C14.13 27.382 14.0123 27.7287 13.7987 27.9439C13.5498 28.1948 13.1168 28.2899 12.7217 28.1807C12.2981 28.0635 11.8494 27.7109 11.6777 27.3606C11.5863 27.1738 11.5752 27.0017 11.644 26.8345C11.7093 26.676 11.851 26.5464 12.0327 26.4792C12.3256 26.3707 12.6618 26.3404 13.0183 26.3404C13.1904 26.3404 13.3673 26.3475 13.5463 26.3563C13.557 26.3568 13.9183 26.3669 14.4226 26.3753C14.3632 26.6001 14.2997 26.8237 14.2323 27.0456Z" fill="#3680DB"/>
<path d="M31.9648 4.85516C31.8452 4.66483 31.7321 4.48497 31.6818 4.32952C31.627 4.16091 31.6111 3.9407 31.5944 3.70748C31.5636 3.28182 31.5289 2.79935 31.2356 2.39646C30.94 1.99014 30.4899 1.80818 30.0929 1.64759C29.878 1.56075 29.6752 1.4787 29.5351 1.37675C29.3985 1.27733 29.2599 1.11154 29.1132 0.9359C28.8369 0.605229 28.5236 0.230332 28.0394 0.0731176C27.5728 -0.0781911 27.1072 0.036556 26.6962 0.138155C26.4653 0.195177 26.2472 0.249035 26.0633 0.249035C25.8794 0.249035 25.6613 0.195107 25.4304 0.138155C25.0195 0.0366263 24.554 -0.0783317 24.0873 0.0731176C23.603 0.230332 23.2898 0.605159 23.0134 0.9359C22.8668 1.1114 22.7282 1.27719 22.5916 1.37668C22.4533 1.47729 22.2537 1.55857 22.0419 1.64428H4.99344C4.19401 1.64428 3.5437 2.29466 3.5437 3.09402V34.5503C3.5437 35.3496 4.19408 36 4.99344 36H27.2215C28.0209 36 28.6713 35.3496 28.6713 34.5503V17.8118C28.7018 17.8146 28.7323 17.8161 28.7628 17.8161C28.96 17.8161 29.1556 17.7571 29.3228 17.6423C29.5916 17.4577 29.7522 17.1528 29.7522 16.8267V10.8085C29.8562 10.7585 29.9724 10.7112 30.0928 10.6625C30.4899 10.502 30.94 10.3199 31.2357 9.91359C31.5289 9.51071 31.5636 9.02817 31.5944 8.60251C31.6111 8.36943 31.627 8.14922 31.6818 7.98054C31.7322 7.82516 31.8452 7.6453 31.9648 7.45497C32.1953 7.08809 32.4567 6.67227 32.4567 6.15507C32.4567 5.63786 32.1953 5.22204 31.9648 4.85516ZM27.6166 34.5503C27.6166 34.7682 27.4394 34.9453 27.2215 34.9453H4.99344C4.77562 34.9453 4.59836 34.7681 4.59836 34.5503V3.09402C4.59836 2.87612 4.77562 2.69894 4.99344 2.69894H20.7212C20.5816 3.02814 20.5557 3.38419 20.5323 3.70762C20.5179 3.90786 20.5041 4.09834 20.4657 4.25506H9.56574C9.36142 4.25506 9.16933 4.33465 9.02491 4.47921C8.8805 4.62377 8.80104 4.81586 8.80112 5.01983C8.80112 5.92881 8.06131 6.66826 7.15198 6.66826C7.12294 6.66826 7.09404 6.66749 7.06613 6.66615C6.85653 6.6549 6.64883 6.73203 6.4971 6.87617C6.34622 7.01946 6.25973 7.22105 6.25973 7.42924V24.335C6.25973 24.6263 6.49584 24.8623 6.78706 24.8623C7.07829 24.8623 7.31439 24.6263 7.31439 24.335V7.71814C8.63342 7.63968 9.70081 6.61159 9.84031 5.30972H19.8957C19.7675 5.56178 19.67 5.83951 19.67 6.15507C19.67 6.67227 19.9313 7.08809 20.1619 7.45483C20.2815 7.64523 20.3946 7.82509 20.4449 7.98054C20.4806 8.09016 20.4996 8.22185 20.5133 8.36444H10.113C9.66685 8.36444 9.30391 8.72738 9.30391 9.1735V12.1647C9.30391 12.6108 9.66685 12.9737 10.113 12.9737H22.3745V16.8268C22.3745 17.1529 22.535 17.4579 22.8038 17.6424C23.0726 17.827 23.4148 17.8672 23.7194 17.7501L24.9005 17.295V29.9262C23.5815 30.0047 22.5141 31.0328 22.3745 32.3346H9.84024C9.70088 31.0329 8.63335 30.0047 7.31432 29.9262V26.7941C7.31432 26.5028 7.07822 26.2668 6.78699 26.2668C6.49577 26.2668 6.25966 26.5028 6.25966 26.7941V30.215C6.25966 30.4232 6.34615 30.6248 6.49703 30.7681C6.6489 30.9124 6.85611 30.9885 7.06521 30.9782C7.09397 30.9767 7.12287 30.976 7.15191 30.976C8.06124 30.976 8.80104 31.7155 8.80104 32.6242C8.80097 32.8284 8.88043 33.0206 9.02484 33.1651C9.16933 33.3096 9.36135 33.3892 9.56567 33.3892H22.6492C22.8535 33.3892 23.0456 33.3096 23.19 33.1651C23.3344 33.0206 23.4139 32.8285 23.4138 32.6245C23.4138 31.7155 24.1535 30.9761 25.0629 30.9761C25.092 30.9761 25.1209 30.9769 25.1488 30.9782C25.3592 30.9896 25.5661 30.9124 25.7179 30.7682C25.8688 30.6248 25.9552 30.4233 25.9552 30.2151V16.8887L26.0633 16.8471L27.6166 17.4454V34.5503ZM20.891 9.91359C21.1867 10.3199 21.6368 10.5019 22.0338 10.6625C22.1543 10.7112 22.2705 10.7585 22.3745 10.8085V11.919H10.3585V9.41903H20.6525C20.7034 9.59052 20.7778 9.75807 20.891 9.91359ZM28.6975 16.7316L26.4191 15.8539C26.3043 15.8097 26.1838 15.7876 26.0633 15.7876C25.9428 15.7876 25.8223 15.8097 25.7076 15.8539L23.4291 16.7316V11.8306C23.6126 12.0022 23.8246 12.1517 24.0872 12.2369C24.2496 12.2896 24.4116 12.3101 24.5715 12.3101C24.8712 12.3101 25.1624 12.2381 25.4304 12.1719C25.6613 12.1149 25.8794 12.061 26.0633 12.061C26.2472 12.061 26.4653 12.115 26.6962 12.1719C27.107 12.2733 27.5726 12.3883 28.0394 12.2369C28.302 12.1517 28.5141 12.0022 28.6975 11.8306V16.7316ZM31.0718 6.89382C30.9232 7.13027 30.7694 7.37489 30.6785 7.65479C30.5841 7.94553 30.5628 8.24097 30.5422 8.52672C30.5198 8.83897 30.4986 9.13399 30.3828 9.29296C30.2647 9.45538 29.989 9.56682 29.6973 9.68473C29.4328 9.79168 29.1594 9.90228 28.9144 10.0805C28.6725 10.2566 28.4851 10.4809 28.3038 10.6978C28.1006 10.9408 27.9089 11.1703 27.7134 11.2337C27.5334 11.2922 27.2493 11.2222 26.9489 11.1479C26.6801 11.0815 26.3753 11.0062 26.0631 11.0062C25.7508 11.0062 25.4462 11.0815 25.1773 11.1479C24.877 11.2222 24.5929 11.2923 24.4128 11.2337C24.2174 11.1703 24.0256 10.9408 23.8224 10.6978C23.6412 10.4808 23.4537 10.2565 23.2118 10.0804C22.9668 9.9022 22.6933 9.79161 22.4288 9.68466C22.1371 9.56668 21.8615 9.45524 21.7434 9.29296C21.6277 9.13392 21.6065 8.83897 21.584 8.52672C21.5634 8.24097 21.5421 7.94546 21.4477 7.65479C21.3568 7.37489 21.2031 7.1302 21.0544 6.89368C20.8846 6.62355 20.7243 6.36839 20.7243 6.15507C20.7243 5.94167 20.8846 5.68644 21.0544 5.41624C21.203 5.17971 21.3568 4.93517 21.4477 4.65527C21.5421 4.3646 21.5634 4.06909 21.584 3.78341C21.6064 3.47109 21.6277 3.17607 21.7435 3.0171C21.8617 2.85468 22.1372 2.74324 22.4289 2.62533C22.6935 2.51838 22.9669 2.40778 23.2119 2.22955C23.4537 2.05349 23.6412 1.8292 23.8225 1.61229C24.0256 1.3693 24.2173 1.1398 24.4128 1.07638C24.4597 1.06112 24.5137 1.05458 24.5731 1.05458C24.7419 1.05458 24.9551 1.10718 25.1773 1.16209C25.4461 1.22846 25.7508 1.30377 26.0631 1.30377C26.3753 1.30377 26.6801 1.22853 26.949 1.16202C27.2495 1.08784 27.5335 1.01788 27.7134 1.07631C27.9088 1.13973 28.1007 1.36923 28.3038 1.61222C28.485 1.8292 28.6725 2.05349 28.9144 2.22955C29.1594 2.40778 29.4329 2.51838 29.6974 2.62533C29.9891 2.74331 30.2647 2.85475 30.3828 3.01703C30.4985 3.17607 30.5197 3.47102 30.5422 3.78327C30.5628 4.06902 30.5841 4.36453 30.6785 4.6552C30.7694 4.9351 30.9231 5.17971 31.0718 5.41624C31.2416 5.68644 31.4019 5.9416 31.4019 6.15499C31.402 6.36839 31.2416 6.62362 31.0718 6.89382Z" fill="#3680DB"/>
<path d="M26.0635 2.12244C23.8399 2.12244 22.0309 3.93146 22.0309 6.15504C22.0309 8.37862 23.8399 10.1876 26.0635 10.1876C27.2434 10.1876 28.3605 9.67318 29.1284 8.77601C29.3177 8.55481 29.2919 8.22189 29.0707 8.03248C28.8495 7.8432 28.5166 7.86893 28.3271 8.0902C27.7599 8.75295 26.9348 9.13298 26.0636 9.13298C24.4215 9.13298 23.0856 7.79708 23.0856 6.15504C23.0856 4.513 24.4215 3.1771 26.0636 3.1771C27.7056 3.1771 29.0415 4.513 29.0415 6.15504C29.0415 6.44634 29.2775 6.68237 29.5688 6.68237C29.8601 6.68237 30.0962 6.44634 30.0962 6.15504C30.0962 3.93146 28.2871 2.12244 26.0635 2.12244Z" fill="#3680DB"/>
</g>
<defs>
<clipPath id="clip0">
<rect width="36" height="36" fill="white"/>
</clipPath>
</defs>
</svg>
