<svg width="39" height="39" viewBox="0 0 39 39" fill="none" xmlns="http://www.w3.org/2000/svg">
<g clip-path="url(#clip0)">
<path d="M38.9248 21.3014C38.5746 17.7793 37.0011 14.4589 34.494 11.9516C32.3514 9.80911 29.7289 8.43229 26.9695 7.82008V5.88468C28.0965 5.60428 28.9343 4.5841 28.9343 3.3715C28.9343 1.94341 27.7725 0.781616 26.3444 0.781616H20.8599C19.4318 0.781616 18.27 1.94341 18.27 3.3715C18.27 4.58402 19.1078 5.60421 20.2348 5.88468V7.82549C17.4838 8.44028 14.87 9.81521 12.7335 11.9517C12.2659 12.4193 11.8348 12.9097 11.4401 13.4195C11.421 13.418 11.4019 13.4166 11.3824 13.4166H5.95422C5.53359 13.4166 5.19249 13.7576 5.19249 14.1783C5.19249 14.599 5.53359 14.9401 5.95422 14.9401H10.4036C9.84514 15.8751 9.3948 16.857 9.05203 17.8678H0.761731C0.341103 17.8678 0 18.2089 0 18.6296C0 19.0503 0.341103 19.3913 0.761731 19.3913H8.62157C8.40204 20.355 8.27605 21.3357 8.24353 22.3192H4.87508C4.45445 22.3192 4.11335 22.6602 4.11335 23.0809C4.11335 23.5016 4.45445 23.8426 4.87508 23.8426H8.26783C8.33212 24.8286 8.49063 25.8094 8.74345 26.7705H3.80865C3.38803 26.7705 3.04692 27.1115 3.04692 27.5322C3.04692 27.9529 3.38803 28.294 3.80865 28.294H9.22959C9.97684 30.2707 11.1447 32.1235 12.7335 33.7123C15.2431 36.2219 18.567 37.7958 22.0927 38.1441C22.5959 38.1938 23.0995 38.2184 23.6024 38.2184C26.5748 38.2184 29.5094 37.3582 31.9995 35.7366C32.3521 35.507 32.4518 35.0351 32.2222 34.6826C31.9926 34.3301 31.5207 34.2304 31.1682 34.4599C25.7175 38.0094 18.4176 37.2419 13.8107 32.6351C8.40532 27.2297 8.40532 18.4345 13.8107 13.029C19.216 7.62371 28.0112 7.62371 33.4167 13.029C38.0174 17.6299 38.7891 24.9235 35.2514 30.3716C35.0222 30.7244 35.1226 31.1962 35.4753 31.4253C35.8283 31.6544 36.3 31.5541 36.529 31.2013C38.4192 28.2903 39.27 24.7745 38.9248 21.3014ZM19.7935 3.37158C19.7935 2.78352 20.2719 2.30515 20.8599 2.30515H26.3444C26.9324 2.30515 27.4108 2.78352 27.4108 3.37158C27.4108 3.95963 26.9324 4.438 26.3444 4.438H26.2077H20.9965H20.8599C20.2719 4.438 19.7935 3.95956 19.7935 3.37158ZM21.7582 7.56361V5.96146H25.446V7.56087C24.2214 7.41522 22.9826 7.41614 21.7582 7.56361Z" fill="#3680DB"/>
<path d="M33.9558 32.4116C33.7547 32.4116 33.559 32.4931 33.4174 32.6348C33.2749 32.7765 33.1941 32.973 33.1941 33.1733C33.1941 33.3737 33.2749 33.5702 33.4174 33.7119C33.559 33.8543 33.7548 33.9351 33.9558 33.9351C34.1561 33.9351 34.3519 33.8543 34.4943 33.7119C34.636 33.5702 34.7175 33.3737 34.7175 33.1733C34.7175 32.973 34.6361 32.7765 34.4943 32.6348C34.3519 32.4931 34.1561 32.4116 33.9558 32.4116Z" fill="#3680DB"/>
<path d="M23.6138 11.0153C17.0981 11.0153 11.7971 16.3161 11.7971 22.8319C11.7971 29.3477 17.0981 34.6486 23.6138 34.6486C30.1295 34.6486 35.4304 29.3477 35.4304 22.8319C35.4304 16.3161 30.1295 11.0153 23.6138 11.0153ZM23.6138 33.1251C17.938 33.1251 13.3206 28.5076 13.3206 22.8319C13.3206 17.1563 17.938 12.5387 23.6138 12.5387C29.2895 12.5387 33.907 17.1563 33.907 22.8319C33.907 28.5076 29.2895 33.1251 23.6138 33.1251Z" fill="#3680DB"/>
<path d="M28.4322 16.9362L24.6594 20.709C24.3439 20.553 23.989 20.4649 23.6138 20.4649C23.2386 20.4649 22.8838 20.553 22.5683 20.709L20.8798 19.0205C20.5822 18.723 20.1 18.723 19.8024 19.0205C19.505 19.3179 19.505 19.8003 19.8024 20.0977L21.491 21.7862C21.3349 22.1018 21.2468 22.4566 21.2468 22.8318C21.2468 24.1369 22.3086 25.1988 23.6138 25.1988C24.9191 25.1988 25.9808 24.1369 25.9808 22.8318C25.9808 22.4566 25.8927 22.1018 25.7367 21.7862L29.3988 18.1241L29.5095 18.0135C29.8069 17.716 29.8069 17.2337 29.5095 16.9362C29.212 16.6388 28.7298 16.6388 28.4322 16.9362ZM23.6138 23.6754C23.1487 23.6754 22.7703 23.297 22.7703 22.8319C22.7703 22.3668 23.1487 21.9883 23.6138 21.9883C24.0789 21.9883 24.4574 22.3668 24.4574 22.8319C24.4574 23.297 24.0789 23.6754 23.6138 23.6754Z" fill="#3680DB"/>
<path d="M31.7581 22.0795H31.0524C30.6317 22.0795 30.2906 22.4205 30.2906 22.8412C30.2906 23.2619 30.6317 23.6029 31.0524 23.6029H31.7581C32.1787 23.6029 32.5198 23.2619 32.5198 22.8412C32.5198 22.4205 32.1787 22.0795 31.7581 22.0795Z" fill="#3680DB"/>
<path d="M16.1753 22.0608H15.4696C15.049 22.0608 14.7079 22.4018 14.7079 22.8225C14.7079 23.2432 15.049 23.5842 15.4696 23.5842H16.1753C16.5959 23.5842 16.937 23.2432 16.937 22.8225C16.937 22.4018 16.5959 22.0608 16.1753 22.0608Z" fill="#3680DB"/>
<path d="M23.6229 16.1549C24.0435 16.1549 24.3846 15.8139 24.3846 15.3932V14.6875C24.3846 14.2668 24.0435 13.9258 23.6229 13.9258C23.2023 13.9258 22.8612 14.2668 22.8612 14.6875V15.3932C22.8612 15.8139 23.2023 16.1549 23.6229 16.1549Z" fill="#3680DB"/>
<path d="M23.6044 29.5088C23.1837 29.5088 22.8427 29.8498 22.8427 30.2705V30.9762C22.8427 31.3969 23.1837 31.7379 23.6044 31.7379C24.025 31.7379 24.3661 31.3969 24.3661 30.9762V30.2705C24.3661 29.8498 24.025 29.5088 23.6044 29.5088Z" fill="#3680DB"/>
<path d="M0.761719 26.7703C0.561387 26.7703 0.364863 26.8518 0.223184 26.9934C0.0815039 27.1351 0 27.3317 0 27.532C0 27.7331 0.0814277 27.9288 0.223184 28.0705C0.364939 28.2122 0.561387 28.2937 0.761719 28.2937C0.962051 28.2937 1.15857 28.2122 1.30018 28.0705C1.44186 27.9288 1.52344 27.7323 1.52344 27.532C1.52344 27.3317 1.44193 27.1351 1.30018 26.9934C1.15857 26.8518 0.962051 26.7703 0.761719 26.7703Z" fill="#3680DB"/>
</g>
<defs>
<clipPath id="clip0">
<rect width="39" height="39" fill="white"/>
</clipPath>
</defs>
</svg>
