<svg width="38" height="39" viewBox="0 0 38 39" fill="none" xmlns="http://www.w3.org/2000/svg">
<path d="M20.508 15.1667C21.0077 15.1667 21.4128 14.751 21.4128 14.2381C21.4128 13.7253 21.0077 13.3096 20.508 13.3096C20.0083 13.3096 19.6033 13.7253 19.6033 14.2381C19.6033 14.751 20.0083 15.1667 20.508 15.1667Z" fill="black"/>
<path d="M12.6665 15.1667C13.1662 15.1667 13.5712 14.751 13.5712 14.2381C13.5712 13.7253 13.1662 13.3096 12.6665 13.3096C12.1668 13.3096 11.7617 13.7253 11.7617 14.2381C11.7617 14.751 12.1668 15.1667 12.6665 15.1667Z" fill="black"/>
<path d="M15.3812 5.5715H17.7939C18.0339 5.5715 18.264 5.47367 18.4337 5.29953C18.6033 5.12539 18.6987 4.8892 18.6987 4.64293C18.6987 4.39665 18.6033 4.16047 18.4337 3.98633C18.264 3.81219 18.0339 3.71436 17.7939 3.71436H15.3812C15.1412 3.71436 14.9111 3.81219 14.7414 3.98633C14.5718 4.16047 14.4764 4.39665 14.4764 4.64293C14.4764 4.8892 14.5718 5.12539 14.7414 5.29953C14.9111 5.47367 15.1412 5.5715 15.3812 5.5715Z" fill="#3680DB"/>
<path d="M37.2064 27.6466L36.2448 27.5244L36.0371 27.0099L36.6328 26.2257C36.7685 26.0471 36.8359 25.8237 36.8223 25.5976C36.8088 25.3715 36.7151 25.1583 36.5591 24.9981L34.3864 22.7683C34.2303 22.6081 34.0226 22.512 33.8023 22.4981C33.582 22.4842 33.3643 22.5534 33.1903 22.6927L32.4262 23.304L31.9249 23.0909L31.8059 22.1039C31.7788 21.8791 31.6726 21.6722 31.5072 21.5222C31.3418 21.3722 31.1287 21.2894 30.908 21.2894H27.8356C27.6149 21.2894 27.4018 21.3722 27.2364 21.5223C27.0711 21.6723 26.9648 21.8791 26.9377 22.1039L26.8187 23.0911L26.3173 23.3042L25.5533 22.6929C25.3792 22.5536 25.1616 22.4844 24.9413 22.4983C24.721 22.5122 24.5133 22.6083 24.3572 22.7685L22.1845 24.9984C22.0284 25.1586 21.9348 25.3718 21.9212 25.5979C21.9077 25.8239 21.9751 26.0473 22.1108 26.226L22.7064 27.0101L22.4988 27.5246L21.5372 27.6467C21.3182 27.6746 21.1166 27.7836 20.9704 27.9533C20.8242 28.1231 20.7436 28.3418 20.7436 28.5683V29.3907L16.5873 33.1233L11.3301 28.4024L13.2282 27.818C13.4146 27.7606 13.578 27.6431 13.6942 27.4829C13.8103 27.3227 13.873 27.1283 13.873 26.9286V24.73C14.8155 25.1451 15.7655 25.381 16.5873 25.381C18.1341 25.381 20.1339 24.5459 21.682 23.2535C23.0613 22.1022 24.0049 20.669 24.4456 19.096C26.1335 18.5749 27.1429 16.0129 27.1429 14.5476C27.1429 13.8951 26.9572 13.3754 26.5912 13.0025C26.2003 12.6045 25.7078 12.4576 25.1641 12.4053C25.6638 11.7939 25.9374 11.0211 25.9365 10.2231V5.88095C25.9348 4.32177 25.3305 2.82697 24.2563 1.72446C23.182 0.621953 21.7256 0.00178179 20.2064 0H12.9683C11.4491 0.00178179 9.9926 0.621953 8.91836 1.72446C7.84413 2.82697 7.23986 4.32177 7.23812 5.88095V10.2231C7.23726 11.0211 7.5108 11.7939 8.01056 12.4053C7.46703 12.4576 6.97424 12.6046 6.58345 13.0025C6.2174 13.3754 6.03178 13.8951 6.03178 14.5476C6.03178 16.0129 7.04119 18.5749 8.72902 19.096C9.16979 20.6693 10.1134 22.1022 11.4926 23.2535C11.677 23.4074 11.8679 23.5546 12.0635 23.6946V26.2373L2.36387 29.2242C1.67886 29.4316 1.078 29.8618 0.651697 30.4499C0.225396 31.038 -0.00329212 31.7523 3.58135e-05 32.4853V38.0714C3.58171e-05 38.3177 0.0953586 38.5539 0.265034 38.728C0.43471 38.9022 0.664839 39 0.904797 39C1.14475 39 1.37488 38.9022 1.54456 38.728C1.71424 38.5539 1.80956 38.3177 1.80956 38.0714V32.4853C1.81106 32.1529 1.91614 31.8297 2.10942 31.563C2.30271 31.2963 2.57407 31.1001 2.88381 31.003L9.28371 29.0325L15.9917 35.056C16.1566 35.204 16.3682 35.2856 16.5873 35.2856C16.8064 35.2856 17.018 35.204 17.183 35.056L20.7534 31.85C20.7807 32.0524 20.8724 32.2398 21.0142 32.3833C21.156 32.5267 21.3399 32.6181 21.5375 32.6433L22.4991 32.7654L22.7067 33.2799L22.1111 34.0641C21.9754 34.2427 21.908 34.4661 21.9215 34.6922C21.9351 34.9183 22.0287 35.1315 22.1848 35.2917L24.3575 37.5216C24.5136 37.6817 24.7213 37.7778 24.9416 37.7917C25.1619 37.8057 25.3795 37.7365 25.5536 37.5972L26.3176 36.9859L26.819 37.199L26.9379 38.1859C26.9651 38.4106 27.0714 38.6173 27.2367 38.7673C27.402 38.9172 27.615 39 27.8356 39H30.9081C31.1288 39 31.3419 38.9172 31.5073 38.7672C31.6727 38.6172 31.779 38.4103 31.8061 38.1855L31.9251 37.1986L32.4264 36.9855L33.1904 37.5968C33.3645 37.7361 33.5821 37.8053 33.8024 37.7913C34.0227 37.7774 34.2305 37.6813 34.3865 37.5212L36.5592 35.2913C36.7153 35.1311 36.8089 34.9179 36.8225 34.6918C36.8361 34.4657 36.7686 34.2423 36.6329 34.0637L36.0373 33.2795L36.2449 32.765L37.2065 32.6429C37.4255 32.6151 37.627 32.506 37.7732 32.3363C37.9193 32.1666 38 31.948 38 31.7215V28.5681C38 28.3416 37.9193 28.1229 37.7732 27.9532C37.627 27.7834 37.4254 27.6744 37.2064 27.6466ZM9.59307 11.4131C9.43231 11.277 9.30097 11.108 9.2074 10.9168C9.11383 10.7257 9.06009 10.5166 9.04961 10.303C13.989 8.95522 19.1857 8.95522 24.125 10.303C24.1136 10.5241 24.0562 10.7401 23.9565 10.9365C23.8569 11.1329 23.7174 11.3051 23.5475 11.4415C23.3775 11.5779 23.181 11.6753 22.9713 11.7272C22.7616 11.7791 22.5434 11.7842 22.3316 11.7423C20.2916 11.3436 18.4394 11.1443 16.5873 11.1443C14.7353 11.1443 12.8831 11.3436 10.8431 11.7423C10.624 11.7855 10.3982 11.7784 10.1821 11.7215C9.96599 11.6646 9.76482 11.5593 9.59307 11.4131ZM25.3333 14.5476C25.3333 15.1363 25.0677 15.8983 24.7302 16.4766V14.2393C24.9831 14.2471 25.2127 14.2678 25.3086 14.3184C25.328 14.3931 25.3363 14.4704 25.3333 14.5476ZM12.9683 1.85714H20.2064C21.2458 1.85835 22.2424 2.28268 22.9774 3.03702C23.7124 3.79137 24.1258 4.81414 24.127 5.88095V8.38755C19.1768 7.11665 13.9978 7.11665 9.04765 8.38755V5.88095C9.04882 4.81414 9.46227 3.79137 10.1973 3.03702C10.9323 2.28268 11.9288 1.85835 12.9683 1.85714ZM7.86603 14.3184C7.96201 14.2678 8.19159 14.2471 8.44447 14.2393V16.4766C8.10692 15.8983 7.8413 15.1363 7.8413 14.5476C7.8383 14.4704 7.84664 14.3931 7.86603 14.3184ZM10.254 17.0238V13.613C10.9725 13.6868 11.7024 13.437 12.4014 13.3499C12.1831 13.4183 11.9979 13.5689 11.8832 13.7714C11.7684 13.974 11.7326 14.2137 11.7828 14.4423C11.833 14.6708 11.9655 14.8715 12.1539 15.004C12.3422 15.1365 12.5723 15.191 12.7982 15.1566C13.024 15.1222 13.2289 15.0015 13.3716 14.8186C13.5143 14.6357 13.5844 14.4041 13.5678 14.1704C13.5511 13.9367 13.449 13.7181 13.2819 13.5584C13.1148 13.3988 12.895 13.3099 12.6667 13.3095C12.6653 13.3095 12.6638 13.3095 12.6624 13.3095C15.2639 12.9019 17.9107 12.9019 20.5123 13.3095C20.5108 13.3095 20.5094 13.3095 20.508 13.3095C20.2796 13.3096 20.0598 13.3983 19.8925 13.5578C19.7252 13.7172 19.6229 13.9357 19.606 14.1694C19.5891 14.4031 19.6589 14.6347 19.8014 14.8178C19.944 15.0008 20.1487 15.1218 20.3745 15.1565C20.6003 15.1911 20.8305 15.1369 21.019 15.0046C21.2074 14.8723 21.3402 14.6718 21.3907 14.4433C21.4411 14.2147 21.4055 13.9751 21.291 13.7724C21.1765 13.5696 20.9915 13.4188 20.7732 13.3502C21.4699 13.437 22.2064 13.6868 22.9207 13.6133V17.0238C22.9207 21.3123 18.4814 23.5238 16.5873 23.5238C13.7198 23.3149 10.2276 20.6828 10.254 17.0238ZM36.1905 30.9008L35.4995 30.9885C35.3407 31.0087 35.1899 31.0717 35.0626 31.1712C34.9353 31.2706 34.8359 31.403 34.7747 31.5547L34.164 33.0688C34.1028 33.2205 34.0818 33.3862 34.1033 33.5489C34.1249 33.7116 34.188 33.8656 34.2864 33.9951L34.7146 34.5586L33.6722 35.6277L33.1231 35.1883C32.9969 35.0873 32.8469 35.0225 32.6884 35.0004C32.5299 34.9783 32.3684 34.9998 32.2206 35.0626L30.7453 35.6894C30.5975 35.7523 30.4685 35.8542 30.3716 35.9849C30.2747 36.1156 30.2133 36.2703 30.1936 36.4333L30.1084 37.1429H28.6357L28.5502 36.4337C28.5306 36.2707 28.4692 36.116 28.3722 35.9853C28.2753 35.8546 28.1464 35.7526 27.9985 35.6898L26.5233 35.063C26.3754 35.0002 26.214 34.9787 26.0555 35.0008C25.8969 35.0229 25.7469 35.0877 25.6208 35.1887L25.0716 35.6281L24.0296 34.5583L24.4578 33.9948C24.5561 33.8653 24.6193 33.7113 24.6408 33.5486C24.6623 33.3859 24.6414 33.2202 24.5802 33.0685L23.9691 31.5544C23.9079 31.4027 23.8085 31.2703 23.6812 31.1709C23.5539 31.0714 23.4031 31.0084 23.2443 30.9882L22.5533 30.9005V29.3893L23.2443 29.3015C23.4031 29.2814 23.5539 29.2183 23.6812 29.1189C23.8085 29.0194 23.9079 28.8871 23.9691 28.7353L24.5802 27.2212C24.6414 27.0695 24.6623 26.9039 24.6408 26.7411C24.6193 26.5784 24.5561 26.4245 24.4578 26.295L24.0296 25.7314L25.0713 24.6623L25.6204 25.1018C25.7466 25.2027 25.8966 25.2676 26.0551 25.2896C26.2136 25.3117 26.3751 25.2903 26.5229 25.2274L27.9982 24.6003C28.146 24.5374 28.275 24.4354 28.3719 24.3048C28.4688 24.1741 28.5302 24.0194 28.5498 23.8564L28.6353 23.1472H30.1084L30.1939 23.8564C30.2136 24.0194 30.275 24.1741 30.3719 24.3048C30.4688 24.4354 30.5978 24.5374 30.7456 24.6003L32.2209 25.2274C32.3687 25.2903 32.5302 25.3117 32.6887 25.2896C32.8472 25.2676 32.9972 25.2027 33.1234 25.1018L33.6725 24.6623L34.7142 25.7314L34.286 26.295C34.1876 26.4245 34.1245 26.5784 34.103 26.7411C34.0815 26.9039 34.1024 27.0695 34.1636 27.2212L34.7743 28.7353C34.8355 28.8871 34.9349 29.0194 35.0622 29.1189C35.1895 29.2183 35.3403 29.2814 35.4991 29.3015L36.1905 29.3893V30.9008Z" fill="#3680DB"/>
<path d="M29.372 26.3585C28.5185 26.3585 27.6913 26.6623 27.0314 27.218C26.3716 27.7737 25.9199 28.5471 25.7534 29.4063C25.5869 30.2655 25.7158 31.1574 26.1181 31.93C26.5205 32.7026 27.1714 33.3082 27.96 33.6434C28.7487 33.9787 29.6261 34.0229 30.443 33.7686C31.2598 33.5143 31.9654 32.9772 32.4397 32.2488C32.9139 31.5204 33.1273 30.6457 33.0437 29.7739C32.96 28.9021 32.5844 28.087 31.9808 27.4676C31.639 27.1149 31.2324 26.8352 30.7846 26.6449C30.3369 26.4545 29.8567 26.3572 29.372 26.3585ZM30.7017 31.5097C30.4388 31.7796 30.1039 31.9633 29.7392 32.0378C29.3745 32.1122 28.9965 32.074 28.653 31.928C28.3095 31.782 28.0159 31.5347 27.8093 31.2174C27.6027 30.9001 27.4924 30.527 27.4924 30.1454C27.4924 29.7638 27.6027 29.3908 27.8093 29.0735C28.0159 28.7562 28.3095 28.5089 28.653 28.3629C28.9965 28.2169 29.3745 28.1787 29.7392 28.2531C30.1039 28.3276 30.4388 28.5113 30.7017 28.7812C31.0538 29.1433 31.2515 29.6339 31.2515 30.1454C31.2515 30.657 31.0538 31.1476 30.7017 31.5097Z" fill="#3680DB"/>
</svg>
