<svg width="38" height="39" viewBox="0 0 38 39" fill="none" xmlns="http://www.w3.org/2000/svg">
<g clip-path="url(#clip0)">
<path d="M7.94116 14.4727C7.94116 20.7729 12.9353 25.8985 19.074 25.8985C25.2127 25.8985 30.2068 20.7729 30.2068 14.4727C30.2068 8.17242 25.2127 3.04688 19.074 3.04688C12.9353 3.04688 7.94116 8.17242 7.94116 14.4727ZM19.074 4.57032C24.3943 4.57032 28.7224 9.01239 28.7224 14.4727C28.7224 19.933 24.3943 24.375 19.074 24.375C13.7537 24.375 9.42554 19.933 9.42554 14.4727C9.42554 9.01239 13.7537 4.57032 19.074 4.57032Z" fill="#3680DB"/>
<path d="M12.2003 13.1146L15.0772 16.0238L14.4153 20.1123C14.3692 20.3971 14.4837 20.6839 14.7113 20.8535C14.9386 21.0231 15.2398 21.046 15.4895 20.9133L19.0737 19.0031L22.6577 20.9133C22.9053 21.0452 23.2065 21.0246 23.4358 20.8535C23.6634 20.6839 23.7779 20.3971 23.7318 20.1123L23.0699 16.0238L25.9468 13.1146C26.1471 12.9123 26.2187 12.6112 26.1317 12.3366C26.0448 12.0622 25.8143 11.862 25.5363 11.8188L21.5438 11.202L19.7373 7.49427C19.6118 7.2363 19.3546 7.07324 19.0737 7.07324C18.7925 7.07324 18.5356 7.2363 18.4098 7.49427L16.6033 11.202L12.6109 11.8188C12.3328 11.8617 12.1023 12.0622 12.0154 12.3366C11.9284 12.6112 12.0003 12.9123 12.2003 13.1146ZM17.2055 12.6496C17.4444 12.6127 17.6508 12.4588 17.7589 12.2372L19.0737 9.53812L20.3885 12.2372C20.4966 12.4588 20.703 12.6127 20.9419 12.6496L23.8478 13.0986L21.7537 15.2156C21.5818 15.3897 21.5029 15.6387 21.5423 15.8833L22.0242 18.8591L19.4155 17.4689C19.3085 17.4118 19.1911 17.3832 19.0737 17.3832C18.9563 17.3832 18.8389 17.4118 18.7316 17.4689L16.1229 18.8591L16.6048 15.8833C16.6445 15.6387 16.5656 15.3897 16.3934 15.2156L14.2996 13.0986L17.2055 12.6496Z" fill="#3680DB"/>
<path d="M19.8164 0.76172C19.8164 1.18245 19.4842 1.52344 19.0742 1.52344C18.6643 1.52344 18.332 1.18245 18.332 0.76172C18.332 0.340989 18.6643 0 19.0742 0C19.4842 0 19.8164 0.340989 19.8164 0.76172Z" fill="#3680DB"/>
<path d="M15.5761 0.449058C9.33277 2.08467 4.97241 7.85143 4.97241 14.4727C4.97241 18.5851 6.65712 22.4601 9.61457 25.2044L5.14317 33.292C4.99937 33.5523 5.01735 33.8749 5.18898 34.1165C5.36061 34.3584 5.65401 34.4747 5.93958 34.4137L11.0175 33.3315L12.8022 38.4931C12.899 38.774 13.1469 38.9707 13.4363 38.9971C13.7256 39.0236 14.003 38.874 14.1466 38.6148L19.074 29.7241L24.0011 38.6148C24.1339 38.8543 24.3809 38.9998 24.6459 38.9998C24.6677 38.9998 24.6897 38.9989 24.7114 38.9971C25.0008 38.9707 25.2487 38.7737 25.3458 38.4931L27.1302 33.3315L32.2081 34.4137C32.4934 34.4744 32.7871 34.3581 32.9587 34.1165C33.1306 33.8749 33.1483 33.5523 33.0045 33.292L28.5331 25.2044C31.4906 22.4601 33.1753 18.5851 33.1753 14.4727C33.1753 7.85143 28.8149 2.08467 22.5718 0.449058C22.1744 0.344916 21.7705 0.590987 21.669 0.998626C21.5676 1.40627 21.8073 1.82105 22.2045 1.92519C27.7901 3.38852 31.6912 8.54828 31.6912 14.4727C31.6912 21.6832 25.9853 27.422 19.074 27.422C12.1577 27.422 6.45679 21.6784 6.45679 14.4727C6.45679 8.54828 10.3576 3.38852 15.9432 1.92519C16.3404 1.82105 16.5801 1.40627 16.4789 0.998626C16.3775 0.590987 15.9736 0.344916 15.5761 0.449058ZM13.6586 36.4144L12.2001 32.1961C12.076 31.8373 11.713 31.6275 11.3497 31.7049L7.24363 32.5799L10.7824 26.1791C12.8457 27.7186 15.2888 28.6565 17.8294 28.8886L13.6586 36.4144ZM26.798 31.7049C26.435 31.6275 26.0717 31.8373 25.9476 32.1961L24.4894 36.4144L20.3183 28.8886C22.8592 28.6565 25.302 27.7186 27.3656 26.1791L30.9044 32.5799L26.798 31.7049Z" fill="#3680DB"/>
</g>
<defs>
<clipPath id="clip0">
<rect width="38" height="39" fill="white"/>
</clipPath>
</defs>
</svg>
