<svg width="13" height="7" viewBox="0 0 13 7" fill="none" xmlns="http://www.w3.org/2000/svg">
<path d="M12.8511 3.10041C12.8509 3.10024 12.8508 3.10004 12.8506 3.09987L10.1972 0.164385C9.99839 -0.055522 9.67687 -0.0547037 9.479 0.166305C9.28116 0.387284 9.28192 0.744708 9.4807 0.964644L11.2622 2.93548H0.507812C0.227348 2.93548 0 3.18822 0 3.5C0 3.81178 0.227348 4.06452 0.507812 4.06452H11.2622L9.48073 6.03536C9.28195 6.25529 9.28118 6.61272 9.47903 6.8337C9.6769 7.05473 9.99844 7.05549 10.1972 6.83561L12.8506 3.90013C12.8508 3.89996 12.8509 3.89976 12.8511 3.89959C13.05 3.67892 13.0493 3.32034 12.8511 3.10041Z" fill="#EFB509"/>
</svg>
