<svg width="17" height="9" viewBox="0 0 17 9" fill="none" xmlns="http://www.w3.org/2000/svg">
<path d="M14.1069 5.16086C13.8321 4.84586 13.9107 4.70571 14.1069 4.42414C14.1105 4.42093 16.3794 1.57564 16.6131 0.610714L16.6145 0.610071C16.7307 0.258428 16.6145 0 16.0528 0H14.1941C13.7209 0 13.5027 0.221786 13.3858 0.469929C13.3858 0.469929 12.4395 2.52579 11.1007 3.85843C10.6686 4.2435 10.4688 4.36693 10.2329 4.36693C10.1168 4.36693 9.93614 4.2435 9.93614 3.89186V0.610071C9.93614 0.188357 9.80367 0 9.41195 0H6.48927C6.19246 0 6.01608 0.196714 6.01608 0.379929C6.01608 0.779786 6.68548 0.871714 6.7549 1.99671V4.43764C6.7549 4.9725 6.64794 5.07086 6.41064 5.07086C5.77878 5.07086 4.24519 3.00664 3.33637 0.644143C3.1529 0.185786 2.97369 0.000642811 2.49696 0.000642811H0.637522C0.106962 0.000642811 0 0.222428 0 0.470571C0 0.909 0.631855 3.08893 2.93827 5.96893C4.4754 7.93479 6.64015 9 8.60938 9C9.79305 9 9.93755 8.76343 9.93755 8.3565C9.93755 6.47807 9.83059 6.30064 10.4235 6.30064C10.6983 6.30064 11.1715 6.42407 12.2765 7.37229C13.5396 8.49664 13.7471 9 14.454 9H16.3128C16.8426 9 17.1111 8.76343 16.9567 8.29671C16.6032 7.31507 14.2146 5.29586 14.1069 5.16086Z" fill="white"/>
</svg>
