<svg width="15" height="15" viewBox="0 0 15 15" fill="none" xmlns="http://www.w3.org/2000/svg">
<path d="M12.9787 0H2.0213C0.904987 0 0 0.904943 0 2.02128V12.9786C0 14.095 0.90495 14.9999 2.0213 14.9999H7.42542L7.43463 9.63976H6.04205C5.86108 9.63976 5.71419 9.49343 5.71349 9.31246L5.70681 7.58465C5.70612 7.40269 5.85344 7.25481 6.03541 7.25481H7.42546V5.58532C7.42546 3.64788 8.60873 2.59293 10.3371 2.59293H11.7553C11.9367 2.59293 12.0839 2.74004 12.0839 2.92153V4.37842C12.0839 4.55983 11.9368 4.7069 11.7555 4.70701L10.8851 4.70742C9.9452 4.70742 9.7632 5.15405 9.7632 5.80952V7.25485H11.8285C12.0253 7.25485 12.178 7.42669 12.1548 7.62212L11.95 9.34992C11.9304 9.51526 11.7902 9.63984 11.6237 9.63984H9.77241L9.7632 15H12.9787C14.0951 15 15 14.0951 15 12.9788V2.02128C15 0.904943 14.095 0 12.9787 0Z" fill="white"/>
</svg>
