<svg width="157" height="50" viewBox="0 0 157 50" fill="none" xmlns="http://www.w3.org/2000/svg">
<path d="M0 27.0945L0.237962 4.1676L0.718134 4.16703C1.38266 4.16646 1.41426 4.16936 1.63803 4.17439C2.6137 4.19602 2.9707 4.18915 4.08583 4.28813C4.69087 4.34183 5.89594 4.48535 6.75934 4.61482C7.86441 4.78053 9.14766 5.10311 9.27448 5.1376L9.24029 13.0071C9.24029 13.0071 9.01586 12.9411 8.78982 12.8871C8.59096 12.8395 8.42849 12.8021 8.32962 12.7844C8.10901 12.7409 7.88195 12.7194 7.82751 12.7153C7.82015 12.7641 7.80808 42.2628 7.80808 42.2628L37.6289 42.2657C37.6289 42.2657 37.5767 41.898 37.4853 41.5336C37.4201 41.2733 37.3811 41.1546 37.3417 41.0274C37.3374 41.0135 37.2519 40.7491 37.2519 40.7491C37.2519 40.7491 45.1945 40.7492 45.2247 40.7541C45.227 40.7667 45.4234 41.5119 45.509 41.973C45.6542 42.7569 45.8131 43.4636 45.9447 44.79C46.1033 46.3879 46.1168 46.5362 46.1312 47.3763L46.1765 50.0001H23.0883H2.73672e-06L0 27.0945ZM36.2991 37.5323C33.0383 28.0564 25.9077 20.1056 16.7294 15.7117C15.3963 15.0735 13.4427 14.2814 12.1953 13.8733L11.5188 13.6519V9.65757V5.6632L12.1953 5.84908C27.0035 9.91842 38.7532 20.8447 43.6508 35.1C44.0671 36.3118 44.6837 38.3433 44.6837 38.5031C44.6837 38.5611 43.4884 38.5857 40.6726 38.5857H36.6616L36.2991 37.5323ZM45.6582 34.0841C44.375 30.4731 42.5019 26.7269 40.4 23.5677C34.5844 14.8267 25.7836 8.0358 15.9418 4.69526C15.5199 4.55205 15.0418 4.41345 14.8285 4.35879C14.7592 4.34101 14.1191 4.18855 14.1191 4.18855L31.9106 4.18884L32.3252 4.46818C33.7368 5.41943 36.1861 7.36037 37.726 8.74812L38.3832 9.34029L38.4035 6.76456L38.4239 4.18884H42.2882H46.1526V19.7785C46.1526 28.3528 46.1439 35.3678 46.1333 35.3673C46.1227 35.3667 45.9089 34.7894 45.6583 34.0841H45.6582Z" fill="white"/>
<path d="M69.6963 21.5884H66.9966V19H60.688V21.5884H57.9976V15.8643H58.7954C59.216 14.6335 59.5592 13.0161 59.8252 11.0122C60.0973 9.00212 60.2334 6.80648 60.2334 4.42529V3.9707H68.8984V15.8457H69.6963V21.5884ZM64.9834 15.8457V6.93945H63.8237V7.05078C63.8237 9.92676 63.5145 12.8584 62.896 15.8457H64.9834ZM79.6416 19H76.376V12.1626L74.3442 19H70.9209V3.9707H74.1865V10.7524L76.376 3.9707H79.6416V19ZM89.7354 14.918C89.7354 16.3652 89.3797 17.4259 88.6685 18.1001C87.9572 18.7743 86.8625 19.1113 85.3843 19.1113C83.8133 19.1113 82.6846 18.7835 81.998 18.1279C81.3115 17.4723 80.9683 16.3498 80.9683 14.7603V13.582H84.7163V15.8828C84.7163 16.4889 84.9297 16.792 85.3564 16.792C85.6657 16.792 85.8481 16.6745 85.9038 16.4395C85.9595 16.2044 85.9873 15.6323 85.9873 14.7231V12.2368H83.8257V10.0474H85.9873V7.48682C85.9873 7.00439 85.9564 6.67041 85.8945 6.48486C85.8327 6.29313 85.6688 6.19727 85.4028 6.19727C84.9451 6.19727 84.7163 6.49414 84.7163 7.08789V8.81348H80.9683V7.54248C80.9683 6.13851 81.2899 5.17676 81.9331 4.65723C82.5763 4.1377 83.6927 3.87793 85.2822 3.87793C86.748 3.87793 87.8551 4.19336 88.6035 4.82422C89.3581 5.45508 89.7354 6.37972 89.7354 7.59814V14.918ZM100.812 19H96.8975V6.97656H95.7563V15.4839C95.7563 16.6034 95.611 17.4074 95.3203 17.896C95.0358 18.3846 94.5998 18.6908 94.0122 18.8145C93.4246 18.9382 92.4876 19 91.2012 19H90.5889V16.4116C91.0651 16.4116 91.3929 16.3529 91.5723 16.2354C91.7516 16.1178 91.8413 15.7158 91.8413 15.0293V3.9707H100.812V19ZM102.371 3.97998H106.268C107.498 3.97998 108.429 4.07585 109.06 4.26758C109.697 4.45931 110.21 4.84896 110.6 5.43652C110.99 6.0179 111.185 6.95801 111.185 8.25684C111.185 9.13509 111.045 9.7474 110.767 10.0938C110.495 10.4401 109.954 10.7061 109.144 10.8916C110.047 11.0957 110.659 11.4359 110.98 11.9121C111.302 12.3822 111.463 13.1058 111.463 14.083V15.4746C111.463 16.4889 111.345 17.2404 111.11 17.729C110.882 18.2176 110.514 18.5516 110.006 18.731C109.499 18.9103 108.46 19 106.889 19H102.371V3.97998ZM106.277 6.5498V9.88965C106.444 9.88346 106.574 9.88037 106.667 9.88037C107.05 9.88037 107.294 9.7876 107.399 9.60205C107.505 9.41032 107.557 8.86914 107.557 7.97852C107.557 7.50846 107.514 7.18066 107.427 6.99512C107.341 6.80339 107.226 6.68278 107.084 6.6333C106.948 6.58382 106.679 6.55599 106.277 6.5498ZM106.277 12.2275V16.4302C106.827 16.4116 107.177 16.325 107.325 16.1704C107.48 16.0158 107.557 15.6354 107.557 15.0293V13.6284C107.557 12.9852 107.489 12.5955 107.353 12.4595C107.217 12.3234 106.858 12.2461 106.277 12.2275ZM121.594 19H118.328V12.1626L116.296 19H112.873V3.9707H116.139V10.7524L118.328 3.9707H121.594V19Z" fill="white"/>
</svg>
