<svg width="141" height="59" viewBox="0 0 141 59" fill="none" xmlns="http://www.w3.org/2000/svg">
<path d="M0 31.8459L0.280697 4.66604L0.847102 4.66537C1.63097 4.66469 1.66824 4.66813 1.9322 4.67408C3.08309 4.69973 3.5042 4.69159 4.8196 4.80892C5.5333 4.87259 6.95478 5.04273 7.97324 5.19622C9.27677 5.39267 10.7905 5.77509 10.9401 5.81598L10.8997 15.1453C10.8997 15.1453 10.635 15.067 10.3684 15.003C10.1338 14.9466 9.94215 14.9022 9.82553 14.8812C9.56529 14.8297 9.29746 14.8042 9.23324 14.7993C9.22456 14.8571 9.21032 49.8279 9.21032 49.8279L44.3866 49.8313C44.3866 49.8313 44.325 49.3954 44.2173 48.9634C44.1403 48.6548 44.0943 48.5141 44.0478 48.3633C44.0427 48.3468 43.9419 48.0334 43.9419 48.0334C43.9419 48.0334 53.311 48.0335 53.3466 48.0393C53.3493 48.0543 53.5809 48.9377 53.6818 49.4843C53.8532 50.4136 54.0406 51.2514 54.1958 52.8238C54.3829 54.7182 54.3988 54.894 54.4159 55.8899L54.4692 59.0004H27.2347H3.2282e-06L0 31.8459ZM42.818 44.2199C38.9716 32.9861 30.5604 23.5605 19.7338 18.3516C18.1613 17.595 15.8569 16.656 14.3854 16.1721L13.5875 15.9097V11.1744V6.43907L14.3854 6.65944C31.853 11.4836 45.7129 24.4367 51.49 41.3364C51.9811 42.7729 52.7084 45.1813 52.7084 45.3708C52.7084 45.4395 51.2984 45.4687 47.977 45.4687H43.2456L42.818 44.2199ZM53.8579 40.132C52.3442 35.8512 50.1347 31.4101 47.6553 27.6649C40.7953 17.3024 30.414 9.25179 18.8048 5.29158C18.3071 5.12181 17.7431 4.95749 17.4915 4.89269C17.4098 4.87162 16.6548 4.69088 16.6548 4.69088L37.6414 4.69122L38.1304 5.02238C39.7956 6.15008 42.6847 8.45107 44.5012 10.0962L45.2763 10.7983L45.3004 7.74474L45.3244 4.69122H49.8827H54.4411V23.1728C54.4411 33.3376 54.4308 41.6538 54.4183 41.6532C54.4058 41.6526 54.1536 40.9681 53.858 40.132H53.8579Z" fill="white"/>
<path d="M77.3398 24.9976H74.2139V22.0005H66.9092V24.9976H63.7939V18.3696H64.7178C65.2048 16.9445 65.6022 15.0718 65.9102 12.7515C66.2253 10.424 66.3828 7.88167 66.3828 5.12451V4.59814H76.416V18.3481H77.3398V24.9976ZM71.8828 18.3481V8.03564H70.54V8.16455C70.54 11.4946 70.182 14.8892 69.4658 18.3481H71.8828ZM88.8555 22.0005H85.0742V14.0835L82.7217 22.0005H78.7578V4.59814H82.5391V12.4507L85.0742 4.59814H88.8555V22.0005ZM100.543 17.2739C100.543 18.9497 100.131 20.1779 99.3076 20.9585C98.484 21.7391 97.2165 22.1294 95.5049 22.1294C93.6859 22.1294 92.3789 21.7498 91.584 20.9907C90.7891 20.2316 90.3916 18.9318 90.3916 17.0913V15.7271H94.7314V18.3911C94.7314 19.0929 94.9785 19.4438 95.4727 19.4438C95.8307 19.4438 96.042 19.3078 96.1064 19.0356C96.1709 18.7635 96.2031 18.1011 96.2031 17.0483V14.1694H93.7002V11.6343H96.2031V8.66943C96.2031 8.11084 96.1673 7.72412 96.0957 7.50928C96.0241 7.28727 95.8343 7.17627 95.5264 7.17627C94.9964 7.17627 94.7314 7.52002 94.7314 8.20752V10.2056H90.3916V8.73389C90.3916 7.10824 90.764 5.99463 91.5088 5.39307C92.2536 4.7915 93.5462 4.49072 95.3867 4.49072C97.084 4.49072 98.3659 4.85596 99.2324 5.58643C100.106 6.31689 100.543 7.38753 100.543 8.79834V17.2739ZM113.369 22.0005H108.836V8.07861H107.515V17.9292C107.515 19.2254 107.346 20.1564 107.01 20.7222C106.68 21.2879 106.175 21.6424 105.495 21.7856C104.815 21.9289 103.73 22.0005 102.24 22.0005H101.531V19.0034C102.083 19.0034 102.462 18.9354 102.67 18.7993C102.878 18.6632 102.981 18.1978 102.981 17.4028V4.59814H113.369V22.0005ZM115.174 4.60889H119.686C121.111 4.60889 122.188 4.71989 122.919 4.94189C123.657 5.1639 124.251 5.61507 124.702 6.29541C125.153 6.96859 125.379 8.05713 125.379 9.56104C125.379 10.578 125.218 11.2869 124.896 11.688C124.58 12.089 123.954 12.397 123.016 12.6118C124.061 12.8481 124.77 13.242 125.143 13.7935C125.515 14.3377 125.701 15.1756 125.701 16.3071V17.9185C125.701 19.0929 125.565 19.9631 125.293 20.5288C125.028 21.0946 124.602 21.4813 124.015 21.689C123.427 21.8966 122.224 22.0005 120.405 22.0005H115.174V4.60889ZM119.696 7.58447V11.4517C119.89 11.4445 120.04 11.4409 120.147 11.4409C120.591 11.4409 120.874 11.3335 120.996 11.1187C121.118 10.8966 121.179 10.27 121.179 9.23877C121.179 8.6945 121.129 8.31494 121.028 8.1001C120.928 7.87809 120.796 7.73844 120.631 7.68115C120.473 7.62386 120.162 7.59163 119.696 7.58447ZM119.696 14.1587V19.0249C120.334 19.0034 120.738 18.9032 120.91 18.7241C121.089 18.5451 121.179 18.1047 121.179 17.4028V15.7808C121.179 15.036 121.1 14.5848 120.942 14.4272C120.785 14.2697 120.369 14.1802 119.696 14.1587ZM137.432 22.0005H133.65V14.0835L131.298 22.0005H127.334V4.59814H131.115V12.4507L133.65 4.59814H137.432V22.0005Z" fill="white"/>
</svg>
