<svg width="115" height="37" viewBox="0 0 115 37" fill="none" xmlns="http://www.w3.org/2000/svg">
<path d="M0 20.0499L0.174303 3.08397L0.526022 3.08355C1.01278 3.08313 1.03592 3.08527 1.19983 3.08899C1.9145 3.105 2.17599 3.09992 2.99281 3.17316C3.43599 3.2129 4.31868 3.3191 4.95111 3.41491C5.76056 3.53754 6.70052 3.77625 6.79341 3.80177L6.76836 9.62523C6.76836 9.62523 6.60397 9.57638 6.4384 9.53638C6.29274 9.5012 6.17374 9.47351 6.10132 9.4604C5.93972 9.42822 5.7734 9.41231 5.73353 9.40926C5.72814 9.44534 5.7193 31.2744 5.7193 31.2744L27.5626 31.2766C27.5626 31.2766 27.5243 31.0045 27.4574 30.7348C27.4096 30.5422 27.3811 30.4543 27.3522 30.3602C27.349 30.3499 27.2864 30.1543 27.2864 30.1543C27.2864 30.1543 33.1043 30.1544 33.1264 30.158C33.1281 30.1673 33.2719 30.7187 33.3346 31.0599C33.441 31.64 33.5574 32.163 33.6538 33.1445C33.7699 34.327 33.7798 34.4367 33.7904 35.0584L33.8235 37H16.9118H2.0046e-06L0 20.0499ZM26.5885 27.7739C24.2 20.7616 18.977 14.8781 12.254 11.6266C11.2775 11.1544 9.84659 10.5682 8.93283 10.2662L8.43734 10.1024V7.14654V4.19071L8.93283 4.32827C19.7796 7.33958 28.3861 15.425 31.9735 25.974C32.2785 26.8706 32.7301 28.374 32.7301 28.4923C32.7301 28.5352 31.8545 28.5534 29.7921 28.5534H26.854L26.5885 27.7739ZM33.4439 25.2222C32.504 22.55 31.132 19.7779 29.5923 17.4401C25.3325 10.9717 18.8861 5.94644 11.6771 3.47444C11.3681 3.36846 11.0179 3.2659 10.8616 3.22545C10.8109 3.21229 10.342 3.09947 10.342 3.09947L23.374 3.09969L23.6777 3.3064C24.7117 4.01032 26.5057 5.44662 27.6337 6.47355L28.115 6.91176L28.13 5.00572L28.1449 3.09969H30.9755H33.806V14.636C33.806 20.981 33.7997 26.1721 33.7919 26.1717C33.7841 26.1713 33.6276 25.7441 33.444 25.2222H33.4439Z" fill="white"/>
<path d="M52.9902 19.3159H50.5747V17H44.9302V19.3159H42.5229V14.1943H43.2368C43.6131 13.0931 43.9202 11.646 44.1582 9.85303C44.4017 8.05452 44.5234 6.09001 44.5234 3.95947V3.55273H52.2764V14.1777H52.9902V19.3159ZM48.7734 14.1777V6.20898H47.7358V6.30859C47.7358 8.88184 47.4591 11.5049 46.9058 14.1777H48.7734ZM61.8887 17H58.9668V10.8823L57.1489 17H54.0859V3.55273H57.0078V9.62061L58.9668 3.55273H61.8887V17ZM70.9199 13.3477C70.9199 14.6426 70.6017 15.5916 69.9653 16.1948C69.3289 16.798 68.3494 17.0996 67.0269 17.0996C65.6213 17.0996 64.6113 16.8063 63.9971 16.2197C63.3828 15.6331 63.0757 14.6287 63.0757 13.2065V12.1523H66.4292V14.2109C66.4292 14.7533 66.6201 15.0244 67.002 15.0244C67.2786 15.0244 67.4419 14.9193 67.4917 14.709C67.5415 14.4987 67.5664 13.9868 67.5664 13.1733V10.9487H65.6323V8.98975H67.5664V6.69873C67.5664 6.26709 67.5387 5.96826 67.4834 5.80225C67.4281 5.6307 67.2814 5.54492 67.0435 5.54492C66.634 5.54492 66.4292 5.81055 66.4292 6.3418V7.88574H63.0757V6.74854C63.0757 5.49235 63.3634 4.63184 63.939 4.16699C64.5145 3.70215 65.5133 3.46973 66.9355 3.46973C68.2471 3.46973 69.2376 3.75195 69.9072 4.31641C70.5824 4.88086 70.9199 5.70817 70.9199 6.79834V13.3477ZM80.8311 17H77.3281V6.24219H76.3071V13.854C76.3071 14.8556 76.1771 15.575 75.917 16.0122C75.6624 16.4494 75.2723 16.7233 74.7466 16.834C74.2209 16.9447 73.3825 17 72.2314 17H71.6836V14.6841C72.1097 14.6841 72.403 14.6315 72.5635 14.5264C72.724 14.4212 72.8042 14.0615 72.8042 13.4473V3.55273H80.8311V17ZM82.2256 3.56104H85.7119C86.8132 3.56104 87.646 3.64681 88.2104 3.81836C88.7804 3.98991 89.2397 4.33854 89.5884 4.86426C89.937 5.38444 90.1113 6.22559 90.1113 7.3877C90.1113 8.1735 89.9868 8.72135 89.7378 9.03125C89.4943 9.34115 89.0101 9.5791 88.2852 9.74512C89.0931 9.92773 89.641 10.2321 89.9287 10.6582C90.2165 11.0788 90.3604 11.7262 90.3604 12.6006V13.8457C90.3604 14.7533 90.2552 15.4256 90.0449 15.8628C89.8402 16.3 89.5109 16.5988 89.0571 16.7593C88.6034 16.9198 87.6737 17 86.2681 17H82.2256V3.56104ZM85.7202 5.86035V8.84863C85.8696 8.8431 85.9858 8.84033 86.0688 8.84033C86.4119 8.84033 86.6305 8.75732 86.7246 8.59131C86.8187 8.41976 86.8657 7.93555 86.8657 7.13867C86.8657 6.7181 86.827 6.4248 86.7495 6.25879C86.672 6.08724 86.5697 5.97933 86.4424 5.93506C86.3206 5.89079 86.0799 5.86589 85.7202 5.86035ZM85.7202 10.9404V14.7007C86.2127 14.6841 86.5254 14.6066 86.6582 14.4683C86.7965 14.3299 86.8657 13.9896 86.8657 13.4473V12.1938C86.8657 11.6183 86.8049 11.2697 86.6831 11.1479C86.5614 11.0262 86.2404 10.957 85.7202 10.9404ZM99.4248 17H96.5029V10.8823L94.6851 17H91.6221V3.55273H94.5439V9.62061L96.5029 3.55273H99.4248V17Z" fill="white"/>
</svg>
