<svg width="91" height="29" viewBox="0 0 91 29" fill="none" xmlns="http://www.w3.org/2000/svg">
<path d="M0 15.7148L0.137927 2.41712L0.416243 2.41679C0.801415 2.41646 0.819729 2.41814 0.949432 2.42105C1.51495 2.4336 1.72187 2.42962 2.36822 2.48702C2.71891 2.51817 3.41739 2.60141 3.91783 2.67651C4.55835 2.77262 5.30215 2.95972 5.37565 2.97972L5.35583 7.54407C5.35583 7.54407 5.22575 7.50578 5.09473 7.47444C4.97947 7.44687 4.8853 7.42516 4.828 7.41488C4.70013 7.38966 4.56852 7.37719 4.53697 7.3748C4.5327 7.40308 4.5257 24.5124 4.5257 24.5124L21.8104 24.5141C21.8104 24.5141 21.7801 24.3008 21.7272 24.0895C21.6894 23.9385 21.6667 23.8697 21.6439 23.7959C21.6414 23.7878 21.5919 23.6345 21.5919 23.6345C21.5919 23.6345 26.1956 23.6345 26.2131 23.6374C26.2144 23.6447 26.3282 24.0769 26.3778 24.3443C26.462 24.799 26.5541 25.2089 26.6304 25.9782C26.7223 26.905 26.7301 26.991 26.7385 27.4782L26.7647 29.0001H13.3824H1.58625e-06L0 15.7148ZM21.0396 21.7688C19.1496 16.2727 15.0166 11.6612 9.69667 9.11274C8.92396 8.74258 7.79165 8.28316 7.06858 8.04643L6.67651 7.91806V5.60131V3.28457L7.06858 3.39238C15.6517 5.75261 22.4621 12.0899 25.3008 20.358C25.5421 21.0608 25.8995 22.2391 25.8995 22.3318C25.8995 22.3654 25.2066 22.3797 23.5746 22.3797H21.2497L21.0396 21.7688ZM26.4643 19.7688C25.7205 17.6744 24.6348 15.5016 23.4165 13.6692C20.0457 8.59942 14.9446 4.66069 9.24018 2.72316C8.99564 2.6401 8.7185 2.55971 8.59486 2.52801C8.55468 2.5177 8.1837 2.42927 8.1837 2.42927L18.496 2.42944L18.7362 2.59146C19.5545 3.14318 20.9741 4.26894 21.8667 5.07383L22.2476 5.41729L22.2594 3.92336L22.2712 2.42944H24.511H26.7509V11.4715C26.7509 16.4446 26.7458 20.5133 26.7397 20.513C26.7335 20.5127 26.6096 20.1778 26.4644 19.7688H26.4643Z" fill="white"/>
<path d="M41.1758 14.771H39.3286V13H35.0122V14.771H33.1714V10.8545H33.7173C34.005 10.0124 34.2399 8.90576 34.4219 7.53467C34.6081 6.15934 34.7012 4.65706 34.7012 3.02783V2.7168H40.6299V10.8418H41.1758V14.771ZM37.9512 10.8418V4.74805H37.1577V4.82422C37.1577 6.79199 36.9461 8.79785 36.5229 10.8418H37.9512ZM47.9805 13H45.7461V8.32178L44.356 13H42.0137V2.7168H44.248V7.35693L45.7461 2.7168H47.9805V13ZM54.8867 10.207C54.8867 11.1973 54.6434 11.923 54.1567 12.3843C53.6701 12.8455 52.9211 13.0762 51.9097 13.0762C50.8348 13.0762 50.0625 12.8519 49.5928 12.4033C49.123 11.9548 48.8882 11.1867 48.8882 10.0991V9.29297H51.4526V10.8672C51.4526 11.2819 51.5986 11.4893 51.8906 11.4893C52.1022 11.4893 52.2271 11.4089 52.2651 11.248C52.3032 11.0872 52.3223 10.6958 52.3223 10.0737V8.37256H50.8433V6.87451H52.3223V5.12256C52.3223 4.79248 52.3011 4.56396 52.2588 4.43701C52.2165 4.30583 52.1043 4.24023 51.9224 4.24023C51.6092 4.24023 51.4526 4.44336 51.4526 4.84961V6.03027H48.8882V5.16064C48.8882 4.20003 49.1082 3.54199 49.5483 3.18652C49.9884 2.83105 50.7523 2.65332 51.8398 2.65332C52.8428 2.65332 53.6003 2.86914 54.1123 3.30078C54.6286 3.73242 54.8867 4.36507 54.8867 5.19873V10.207ZM62.4658 13H59.7871V4.77344H59.0063V10.5942C59.0063 11.3602 58.9069 11.9103 58.708 12.2446C58.5133 12.5789 58.215 12.7884 57.813 12.873C57.411 12.9577 56.7699 13 55.8896 13H55.4707V11.229C55.7965 11.229 56.0208 11.1888 56.1436 11.1084C56.2663 11.028 56.3276 10.7529 56.3276 10.2832V2.7168H62.4658V13ZM63.5322 2.72314H66.1982C67.0404 2.72314 67.6772 2.78874 68.1089 2.91992C68.5448 3.05111 68.896 3.31771 69.1626 3.71973C69.4292 4.11751 69.5625 4.76074 69.5625 5.64941C69.5625 6.25033 69.4673 6.66927 69.2769 6.90625C69.0907 7.14323 68.7204 7.3252 68.166 7.45215C68.7839 7.5918 69.2028 7.82454 69.4229 8.15039C69.6429 8.47201 69.7529 8.96712 69.7529 9.63574V10.5879C69.7529 11.2819 69.6725 11.7961 69.5117 12.1304C69.3551 12.4647 69.1034 12.6932 68.7563 12.8159C68.4093 12.9386 67.6984 13 66.6235 13H63.5322V2.72314ZM66.2046 4.48145V6.7666C66.3188 6.76237 66.4077 6.76025 66.4712 6.76025C66.7336 6.76025 66.9007 6.69678 66.9727 6.56982C67.0446 6.43864 67.0806 6.06836 67.0806 5.45898C67.0806 5.13737 67.0509 4.91309 66.9917 4.78613C66.9325 4.65495 66.8542 4.57243 66.7568 4.53857C66.6637 4.50472 66.4797 4.48568 66.2046 4.48145ZM66.2046 8.36621V11.2417C66.5812 11.229 66.8203 11.1698 66.9219 11.064C67.0277 10.9582 67.0806 10.6979 67.0806 10.2832V9.32471C67.0806 8.8846 67.034 8.618 66.9409 8.5249C66.8478 8.4318 66.6024 8.37891 66.2046 8.36621ZM76.6846 13H74.4502V8.32178L73.0601 13H70.7178V2.7168H72.9521V7.35693L74.4502 2.7168H76.6846V13Z" fill="white"/>
</svg>
