<svg xmlns="http://www.w3.org/2000/svg" xmlns:xlink="http://www.w3.org/1999/xlink"><defs>
<clipPath id="clip0">
<rect width="40" height="40" fill="white"/>
</clipPath>

<clipPath id="clip0">
<rect width="36" height="36" fill="white"/>
</clipPath>

<clipPath id="clip0">
<rect width="39" height="39" fill="white"/>
</clipPath>

<clipPath id="clip0">
<rect width="40" height="40" fill="white"/>
</clipPath>

<clipPath id="clip0">
<rect width="38" height="39" fill="white"/>
</clipPath>
</defs><symbol id="icon-box-nku" viewBox="0 0 40 40">
<g clip-path="url(#clip0)">
<path d="M37.6563 9.84386H30.6251V9.06261C30.6251 8.63183 30.9756 8.28136 31.4063 8.28136H36.0938C37.1304 8.24011 37.1296 6.75972 36.0938 6.71887H31.4063C30.114 6.71887 29.0626 7.77027 29.0626 9.06261V9.84386H25.7032V5.93762C25.7032 5.50684 26.0537 5.15637 26.4845 5.15637H31.172C32.2085 5.11512 32.2077 3.63473 31.172 3.59387H26.4845C25.1921 3.59387 24.1407 4.64528 24.1407 5.93762V9.84386H20.7814V4.37512C20.7401 3.33856 19.2597 3.33934 19.2189 4.37512V9.84386H15.8595V5.93762C15.8595 4.64528 14.8081 3.59387 13.5158 3.59387H8.82826C7.7917 3.63512 7.79248 5.11551 8.82826 5.15637H13.5158C13.9465 5.15637 14.297 5.50684 14.297 5.93762V9.84386H10.9376V9.06261C10.9376 7.77027 9.88623 6.71887 8.59389 6.71887H3.90624C2.86968 6.76012 2.87046 8.2405 3.90624 8.28136H8.59373C9.02451 8.28136 9.37498 8.63183 9.37498 9.06261V9.84386H2.34375C1.0514 9.84386 0 10.8953 0 12.1876V34.0626C0 35.3549 1.0514 36.4063 2.34375 36.4063H37.6563C38.9487 36.4063 40.0001 35.3549 40.0001 34.0626V12.1876C40 10.8953 38.9487 9.84386 37.6563 9.84386ZM38.4375 34.0626C38.4375 34.4933 38.087 34.8438 37.6563 34.8438H2.34375C1.91296 34.8438 1.5625 34.4933 1.5625 34.0626V12.1876C1.5625 11.7568 1.91296 11.4064 2.34375 11.4064H37.6563C38.0871 11.4064 38.4376 11.7568 38.4376 12.1876V34.0626H38.4375Z" fill="#3680DB"/>
<path d="M36.0938 14.5314H3.90625C3.47477 14.5314 3.125 14.8811 3.125 15.3126V30.9376C3.125 31.3691 3.47477 31.7189 3.90625 31.7189H36.0938C36.5253 31.7189 36.8751 31.3691 36.8751 30.9376V15.3126C36.8751 14.8811 36.5253 14.5314 36.0938 14.5314ZM35.3126 30.1563H4.6875V16.0938H35.3126V30.1563Z" fill="#3680DB"/>
<path d="M17.4653 24.1017H19.2188V26.4454C19.2601 27.482 20.7405 27.4812 20.7813 26.4454V24.1017H22.5348C22.9663 24.1017 23.316 23.7519 23.316 23.3204V19.8048C23.316 19.3733 22.9663 19.0236 22.5348 19.0236H17.4653C17.0338 19.0236 16.6841 19.3733 16.6841 19.8048V23.3204C16.6841 23.7519 17.0338 24.1017 17.4653 24.1017ZM18.2466 20.5861H21.7535V22.5392H18.2466V20.5861Z" fill="#3680DB"/>
<path d="M26.3369 24.1017H28.0904V26.4454C28.1317 27.482 29.6121 27.4812 29.6529 26.4454V24.1017H31.4064C31.8379 24.1017 32.1876 23.7519 32.1876 23.3204V19.8048C32.1876 19.3733 31.8379 19.0236 31.4064 19.0236H26.3369C25.9054 19.0236 25.5557 19.3733 25.5557 19.8048V23.3204C25.5557 23.7519 25.9054 24.1017 26.3369 24.1017ZM27.1182 20.5861H30.6251V22.5392H27.1182V20.5861Z" fill="#3680DB"/>
<path d="M8.59375 24.1017H10.3472V26.4454C10.3884 27.482 11.8688 27.4812 11.9097 26.4454V24.1017H13.6632C14.0947 24.1017 14.4445 23.7519 14.4445 23.3204V19.8048C14.4445 19.3733 14.0947 19.0236 13.6632 19.0236H8.59375C8.16227 19.0236 7.8125 19.3733 7.8125 19.8048V23.3204C7.8125 23.7519 8.16234 24.1017 8.59375 24.1017ZM9.375 20.5861H12.882V22.5392H9.375V20.5861Z" fill="#3680DB"/>
</g>

</symbol><symbol id="icon-certificate" viewBox="0 0 36 36">
<g clip-path="url(#clip0)">
<path d="M9.83104 16.0389H20.1972C20.4885 16.0389 20.7245 15.8029 20.7245 15.5116C20.7245 15.2203 20.4885 14.9843 20.1972 14.9843H9.83104C9.53981 14.9843 9.30371 15.2203 9.30371 15.5116C9.30371 15.8029 9.53981 16.0389 9.83104 16.0389Z" fill="#3680DB"/>
<path d="M9.83104 18.6588H20.1972C20.4885 18.6588 20.7245 18.4228 20.7245 18.1315C20.7245 17.8402 20.4885 17.6041 20.1972 17.6041H9.83104C9.53981 17.6041 9.30371 17.8402 9.30371 18.1315C9.30371 18.4228 9.53981 18.6588 9.83104 18.6588Z" fill="#3680DB"/>
<path d="M9.83104 21.2788H16.1073C16.3986 21.2788 16.6347 21.0427 16.6347 20.7515C16.6347 20.4602 16.3986 20.2241 16.1073 20.2241H9.83104C9.53981 20.2241 9.30371 20.4602 9.30371 20.7515C9.30371 21.0427 9.53981 21.2788 9.83104 21.2788Z" fill="#3680DB"/>
<path d="M19.822 26.7907C19.6889 26.7627 19.5503 26.6633 19.4774 26.5436C19.4476 26.4948 19.4161 26.4223 19.435 26.3537C19.5077 26.089 19.3651 25.8128 19.1072 25.7187C18.8494 25.6247 18.5625 25.7441 18.4475 25.9934C18.3602 26.1829 18.2554 26.3944 18.1158 26.5061C18.0361 26.5699 17.9442 26.5801 17.9231 26.5706C17.8989 26.5555 17.8264 26.3917 17.9434 25.9151C17.9894 25.7276 17.9293 25.5299 17.7866 25.3998C17.6496 25.2748 17.4576 25.2314 17.2809 25.284C17.1094 25.3165 16.4582 25.3292 15.7431 25.3307C15.8302 24.8823 15.9021 24.4314 15.9584 23.9795C15.9944 23.6905 15.7893 23.427 15.5003 23.391C15.2109 23.3551 14.9478 23.5601 14.9118 23.8492C14.8503 24.3433 14.769 24.8364 14.6687 25.3258C14.1872 25.3205 13.7797 25.3119 13.5978 25.3029C12.9347 25.2704 12.2877 25.2603 11.6667 25.4901C11.2095 25.6593 10.8457 26.0031 10.6687 26.4333C10.4836 26.883 10.505 27.364 10.7305 27.8245C11.0826 28.5436 11.8432 29.0321 12.4406 29.1972C12.6422 29.253 12.8482 29.2801 13.0517 29.2801C13.6189 29.2801 14.1671 29.0703 14.5476 28.6867C14.9311 28.3 15.1068 27.7951 15.2414 27.3524C15.3384 27.0331 15.4276 26.7108 15.5088 26.3862C15.974 26.3869 16.4448 26.3828 16.8271 26.3676C16.8292 26.7946 16.9592 27.2135 17.367 27.4667C17.7799 27.723 18.3391 27.6711 18.7632 27.3389C18.9869 27.5812 19.2858 27.7556 19.6046 27.8228C20.1568 27.9392 20.7664 27.7982 21.4165 27.4038C21.6655 27.2527 21.7449 26.9284 21.5938 26.6794C21.4427 26.4304 21.1183 26.3511 20.8694 26.5022C20.4558 26.753 20.1035 26.8499 19.822 26.7907ZM14.2323 27.0456C14.13 27.382 14.0123 27.7287 13.7987 27.9439C13.5498 28.1948 13.1168 28.2899 12.7217 28.1807C12.2981 28.0635 11.8494 27.7109 11.6777 27.3606C11.5863 27.1738 11.5752 27.0017 11.644 26.8345C11.7093 26.676 11.851 26.5464 12.0327 26.4792C12.3256 26.3707 12.6618 26.3404 13.0183 26.3404C13.1904 26.3404 13.3673 26.3475 13.5463 26.3563C13.557 26.3568 13.9183 26.3669 14.4226 26.3753C14.3632 26.6001 14.2997 26.8237 14.2323 27.0456Z" fill="#3680DB"/>
<path d="M31.9648 4.85516C31.8452 4.66483 31.7321 4.48497 31.6818 4.32952C31.627 4.16091 31.6111 3.9407 31.5944 3.70748C31.5636 3.28182 31.5289 2.79935 31.2356 2.39646C30.94 1.99014 30.4899 1.80818 30.0929 1.64759C29.878 1.56075 29.6752 1.4787 29.5351 1.37675C29.3985 1.27733 29.2599 1.11154 29.1132 0.9359C28.8369 0.605229 28.5236 0.230332 28.0394 0.0731176C27.5728 -0.0781911 27.1072 0.036556 26.6962 0.138155C26.4653 0.195177 26.2472 0.249035 26.0633 0.249035C25.8794 0.249035 25.6613 0.195107 25.4304 0.138155C25.0195 0.0366263 24.554 -0.0783317 24.0873 0.0731176C23.603 0.230332 23.2898 0.605159 23.0134 0.9359C22.8668 1.1114 22.7282 1.27719 22.5916 1.37668C22.4533 1.47729 22.2537 1.55857 22.0419 1.64428H4.99344C4.19401 1.64428 3.5437 2.29466 3.5437 3.09402V34.5503C3.5437 35.3496 4.19408 36 4.99344 36H27.2215C28.0209 36 28.6713 35.3496 28.6713 34.5503V17.8118C28.7018 17.8146 28.7323 17.8161 28.7628 17.8161C28.96 17.8161 29.1556 17.7571 29.3228 17.6423C29.5916 17.4577 29.7522 17.1528 29.7522 16.8267V10.8085C29.8562 10.7585 29.9724 10.7112 30.0928 10.6625C30.4899 10.502 30.94 10.3199 31.2357 9.91359C31.5289 9.51071 31.5636 9.02817 31.5944 8.60251C31.6111 8.36943 31.627 8.14922 31.6818 7.98054C31.7322 7.82516 31.8452 7.6453 31.9648 7.45497C32.1953 7.08809 32.4567 6.67227 32.4567 6.15507C32.4567 5.63786 32.1953 5.22204 31.9648 4.85516ZM27.6166 34.5503C27.6166 34.7682 27.4394 34.9453 27.2215 34.9453H4.99344C4.77562 34.9453 4.59836 34.7681 4.59836 34.5503V3.09402C4.59836 2.87612 4.77562 2.69894 4.99344 2.69894H20.7212C20.5816 3.02814 20.5557 3.38419 20.5323 3.70762C20.5179 3.90786 20.5041 4.09834 20.4657 4.25506H9.56574C9.36142 4.25506 9.16933 4.33465 9.02491 4.47921C8.8805 4.62377 8.80104 4.81586 8.80112 5.01983C8.80112 5.92881 8.06131 6.66826 7.15198 6.66826C7.12294 6.66826 7.09404 6.66749 7.06613 6.66615C6.85653 6.6549 6.64883 6.73203 6.4971 6.87617C6.34622 7.01946 6.25973 7.22105 6.25973 7.42924V24.335C6.25973 24.6263 6.49584 24.8623 6.78706 24.8623C7.07829 24.8623 7.31439 24.6263 7.31439 24.335V7.71814C8.63342 7.63968 9.70081 6.61159 9.84031 5.30972H19.8957C19.7675 5.56178 19.67 5.83951 19.67 6.15507C19.67 6.67227 19.9313 7.08809 20.1619 7.45483C20.2815 7.64523 20.3946 7.82509 20.4449 7.98054C20.4806 8.09016 20.4996 8.22185 20.5133 8.36444H10.113C9.66685 8.36444 9.30391 8.72738 9.30391 9.1735V12.1647C9.30391 12.6108 9.66685 12.9737 10.113 12.9737H22.3745V16.8268C22.3745 17.1529 22.535 17.4579 22.8038 17.6424C23.0726 17.827 23.4148 17.8672 23.7194 17.7501L24.9005 17.295V29.9262C23.5815 30.0047 22.5141 31.0328 22.3745 32.3346H9.84024C9.70088 31.0329 8.63335 30.0047 7.31432 29.9262V26.7941C7.31432 26.5028 7.07822 26.2668 6.78699 26.2668C6.49577 26.2668 6.25966 26.5028 6.25966 26.7941V30.215C6.25966 30.4232 6.34615 30.6248 6.49703 30.7681C6.6489 30.9124 6.85611 30.9885 7.06521 30.9782C7.09397 30.9767 7.12287 30.976 7.15191 30.976C8.06124 30.976 8.80104 31.7155 8.80104 32.6242C8.80097 32.8284 8.88043 33.0206 9.02484 33.1651C9.16933 33.3096 9.36135 33.3892 9.56567 33.3892H22.6492C22.8535 33.3892 23.0456 33.3096 23.19 33.1651C23.3344 33.0206 23.4139 32.8285 23.4138 32.6245C23.4138 31.7155 24.1535 30.9761 25.0629 30.9761C25.092 30.9761 25.1209 30.9769 25.1488 30.9782C25.3592 30.9896 25.5661 30.9124 25.7179 30.7682C25.8688 30.6248 25.9552 30.4233 25.9552 30.2151V16.8887L26.0633 16.8471L27.6166 17.4454V34.5503ZM20.891 9.91359C21.1867 10.3199 21.6368 10.5019 22.0338 10.6625C22.1543 10.7112 22.2705 10.7585 22.3745 10.8085V11.919H10.3585V9.41903H20.6525C20.7034 9.59052 20.7778 9.75807 20.891 9.91359ZM28.6975 16.7316L26.4191 15.8539C26.3043 15.8097 26.1838 15.7876 26.0633 15.7876C25.9428 15.7876 25.8223 15.8097 25.7076 15.8539L23.4291 16.7316V11.8306C23.6126 12.0022 23.8246 12.1517 24.0872 12.2369C24.2496 12.2896 24.4116 12.3101 24.5715 12.3101C24.8712 12.3101 25.1624 12.2381 25.4304 12.1719C25.6613 12.1149 25.8794 12.061 26.0633 12.061C26.2472 12.061 26.4653 12.115 26.6962 12.1719C27.107 12.2733 27.5726 12.3883 28.0394 12.2369C28.302 12.1517 28.5141 12.0022 28.6975 11.8306V16.7316ZM31.0718 6.89382C30.9232 7.13027 30.7694 7.37489 30.6785 7.65479C30.5841 7.94553 30.5628 8.24097 30.5422 8.52672C30.5198 8.83897 30.4986 9.13399 30.3828 9.29296C30.2647 9.45538 29.989 9.56682 29.6973 9.68473C29.4328 9.79168 29.1594 9.90228 28.9144 10.0805C28.6725 10.2566 28.4851 10.4809 28.3038 10.6978C28.1006 10.9408 27.9089 11.1703 27.7134 11.2337C27.5334 11.2922 27.2493 11.2222 26.9489 11.1479C26.6801 11.0815 26.3753 11.0062 26.0631 11.0062C25.7508 11.0062 25.4462 11.0815 25.1773 11.1479C24.877 11.2222 24.5929 11.2923 24.4128 11.2337C24.2174 11.1703 24.0256 10.9408 23.8224 10.6978C23.6412 10.4808 23.4537 10.2565 23.2118 10.0804C22.9668 9.9022 22.6933 9.79161 22.4288 9.68466C22.1371 9.56668 21.8615 9.45524 21.7434 9.29296C21.6277 9.13392 21.6065 8.83897 21.584 8.52672C21.5634 8.24097 21.5421 7.94546 21.4477 7.65479C21.3568 7.37489 21.2031 7.1302 21.0544 6.89368C20.8846 6.62355 20.7243 6.36839 20.7243 6.15507C20.7243 5.94167 20.8846 5.68644 21.0544 5.41624C21.203 5.17971 21.3568 4.93517 21.4477 4.65527C21.5421 4.3646 21.5634 4.06909 21.584 3.78341C21.6064 3.47109 21.6277 3.17607 21.7435 3.0171C21.8617 2.85468 22.1372 2.74324 22.4289 2.62533C22.6935 2.51838 22.9669 2.40778 23.2119 2.22955C23.4537 2.05349 23.6412 1.8292 23.8225 1.61229C24.0256 1.3693 24.2173 1.1398 24.4128 1.07638C24.4597 1.06112 24.5137 1.05458 24.5731 1.05458C24.7419 1.05458 24.9551 1.10718 25.1773 1.16209C25.4461 1.22846 25.7508 1.30377 26.0631 1.30377C26.3753 1.30377 26.6801 1.22853 26.949 1.16202C27.2495 1.08784 27.5335 1.01788 27.7134 1.07631C27.9088 1.13973 28.1007 1.36923 28.3038 1.61222C28.485 1.8292 28.6725 2.05349 28.9144 2.22955C29.1594 2.40778 29.4329 2.51838 29.6974 2.62533C29.9891 2.74331 30.2647 2.85475 30.3828 3.01703C30.4985 3.17607 30.5197 3.47102 30.5422 3.78327C30.5628 4.06902 30.5841 4.36453 30.6785 4.6552C30.7694 4.9351 30.9231 5.17971 31.0718 5.41624C31.2416 5.68644 31.4019 5.9416 31.4019 6.15499C31.402 6.36839 31.2416 6.62362 31.0718 6.89382Z" fill="#3680DB"/>
<path d="M26.0635 2.12244C23.8399 2.12244 22.0309 3.93146 22.0309 6.15504C22.0309 8.37862 23.8399 10.1876 26.0635 10.1876C27.2434 10.1876 28.3605 9.67318 29.1284 8.77601C29.3177 8.55481 29.2919 8.22189 29.0707 8.03248C28.8495 7.8432 28.5166 7.86893 28.3271 8.0902C27.7599 8.75295 26.9348 9.13298 26.0636 9.13298C24.4215 9.13298 23.0856 7.79708 23.0856 6.15504C23.0856 4.513 24.4215 3.1771 26.0636 3.1771C27.7056 3.1771 29.0415 4.513 29.0415 6.15504C29.0415 6.44634 29.2775 6.68237 29.5688 6.68237C29.8601 6.68237 30.0962 6.44634 30.0962 6.15504C30.0962 3.93146 28.2871 2.12244 26.0635 2.12244Z" fill="#3680DB"/>
</g>

</symbol><symbol id="icon-clock" viewBox="0 0 39 39">
<g clip-path="url(#clip0)">
<path d="M38.9248 21.3014C38.5746 17.7793 37.0011 14.4589 34.494 11.9516C32.3514 9.80911 29.7289 8.43229 26.9695 7.82008V5.88468C28.0965 5.60428 28.9343 4.5841 28.9343 3.3715C28.9343 1.94341 27.7725 0.781616 26.3444 0.781616H20.8599C19.4318 0.781616 18.27 1.94341 18.27 3.3715C18.27 4.58402 19.1078 5.60421 20.2348 5.88468V7.82549C17.4838 8.44028 14.87 9.81521 12.7335 11.9517C12.2659 12.4193 11.8348 12.9097 11.4401 13.4195C11.421 13.418 11.4019 13.4166 11.3824 13.4166H5.95422C5.53359 13.4166 5.19249 13.7576 5.19249 14.1783C5.19249 14.599 5.53359 14.9401 5.95422 14.9401H10.4036C9.84514 15.8751 9.3948 16.857 9.05203 17.8678H0.761731C0.341103 17.8678 0 18.2089 0 18.6296C0 19.0503 0.341103 19.3913 0.761731 19.3913H8.62157C8.40204 20.355 8.27605 21.3357 8.24353 22.3192H4.87508C4.45445 22.3192 4.11335 22.6602 4.11335 23.0809C4.11335 23.5016 4.45445 23.8426 4.87508 23.8426H8.26783C8.33212 24.8286 8.49063 25.8094 8.74345 26.7705H3.80865C3.38803 26.7705 3.04692 27.1115 3.04692 27.5322C3.04692 27.9529 3.38803 28.294 3.80865 28.294H9.22959C9.97684 30.2707 11.1447 32.1235 12.7335 33.7123C15.2431 36.2219 18.567 37.7958 22.0927 38.1441C22.5959 38.1938 23.0995 38.2184 23.6024 38.2184C26.5748 38.2184 29.5094 37.3582 31.9995 35.7366C32.3521 35.507 32.4518 35.0351 32.2222 34.6826C31.9926 34.3301 31.5207 34.2304 31.1682 34.4599C25.7175 38.0094 18.4176 37.2419 13.8107 32.6351C8.40532 27.2297 8.40532 18.4345 13.8107 13.029C19.216 7.62371 28.0112 7.62371 33.4167 13.029C38.0174 17.6299 38.7891 24.9235 35.2514 30.3716C35.0222 30.7244 35.1226 31.1962 35.4753 31.4253C35.8283 31.6544 36.3 31.5541 36.529 31.2013C38.4192 28.2903 39.27 24.7745 38.9248 21.3014ZM19.7935 3.37158C19.7935 2.78352 20.2719 2.30515 20.8599 2.30515H26.3444C26.9324 2.30515 27.4108 2.78352 27.4108 3.37158C27.4108 3.95963 26.9324 4.438 26.3444 4.438H26.2077H20.9965H20.8599C20.2719 4.438 19.7935 3.95956 19.7935 3.37158ZM21.7582 7.56361V5.96146H25.446V7.56087C24.2214 7.41522 22.9826 7.41614 21.7582 7.56361Z" fill="#3680DB"/>
<path d="M33.9558 32.4116C33.7547 32.4116 33.559 32.4931 33.4174 32.6348C33.2749 32.7765 33.1941 32.973 33.1941 33.1733C33.1941 33.3737 33.2749 33.5702 33.4174 33.7119C33.559 33.8543 33.7548 33.9351 33.9558 33.9351C34.1561 33.9351 34.3519 33.8543 34.4943 33.7119C34.636 33.5702 34.7175 33.3737 34.7175 33.1733C34.7175 32.973 34.6361 32.7765 34.4943 32.6348C34.3519 32.4931 34.1561 32.4116 33.9558 32.4116Z" fill="#3680DB"/>
<path d="M23.6138 11.0153C17.0981 11.0153 11.7971 16.3161 11.7971 22.8319C11.7971 29.3477 17.0981 34.6486 23.6138 34.6486C30.1295 34.6486 35.4304 29.3477 35.4304 22.8319C35.4304 16.3161 30.1295 11.0153 23.6138 11.0153ZM23.6138 33.1251C17.938 33.1251 13.3206 28.5076 13.3206 22.8319C13.3206 17.1563 17.938 12.5387 23.6138 12.5387C29.2895 12.5387 33.907 17.1563 33.907 22.8319C33.907 28.5076 29.2895 33.1251 23.6138 33.1251Z" fill="#3680DB"/>
<path d="M28.4322 16.9362L24.6594 20.709C24.3439 20.553 23.989 20.4649 23.6138 20.4649C23.2386 20.4649 22.8838 20.553 22.5683 20.709L20.8798 19.0205C20.5822 18.723 20.1 18.723 19.8024 19.0205C19.505 19.3179 19.505 19.8003 19.8024 20.0977L21.491 21.7862C21.3349 22.1018 21.2468 22.4566 21.2468 22.8318C21.2468 24.1369 22.3086 25.1988 23.6138 25.1988C24.9191 25.1988 25.9808 24.1369 25.9808 22.8318C25.9808 22.4566 25.8927 22.1018 25.7367 21.7862L29.3988 18.1241L29.5095 18.0135C29.8069 17.716 29.8069 17.2337 29.5095 16.9362C29.212 16.6388 28.7298 16.6388 28.4322 16.9362ZM23.6138 23.6754C23.1487 23.6754 22.7703 23.297 22.7703 22.8319C22.7703 22.3668 23.1487 21.9883 23.6138 21.9883C24.0789 21.9883 24.4574 22.3668 24.4574 22.8319C24.4574 23.297 24.0789 23.6754 23.6138 23.6754Z" fill="#3680DB"/>
<path d="M31.7581 22.0795H31.0524C30.6317 22.0795 30.2906 22.4205 30.2906 22.8412C30.2906 23.2619 30.6317 23.6029 31.0524 23.6029H31.7581C32.1787 23.6029 32.5198 23.2619 32.5198 22.8412C32.5198 22.4205 32.1787 22.0795 31.7581 22.0795Z" fill="#3680DB"/>
<path d="M16.1753 22.0608H15.4696C15.049 22.0608 14.7079 22.4018 14.7079 22.8225C14.7079 23.2432 15.049 23.5842 15.4696 23.5842H16.1753C16.5959 23.5842 16.937 23.2432 16.937 22.8225C16.937 22.4018 16.5959 22.0608 16.1753 22.0608Z" fill="#3680DB"/>
<path d="M23.6229 16.1549C24.0435 16.1549 24.3846 15.8139 24.3846 15.3932V14.6875C24.3846 14.2668 24.0435 13.9258 23.6229 13.9258C23.2023 13.9258 22.8612 14.2668 22.8612 14.6875V15.3932C22.8612 15.8139 23.2023 16.1549 23.6229 16.1549Z" fill="#3680DB"/>
<path d="M23.6044 29.5088C23.1837 29.5088 22.8427 29.8498 22.8427 30.2705V30.9762C22.8427 31.3969 23.1837 31.7379 23.6044 31.7379C24.025 31.7379 24.3661 31.3969 24.3661 30.9762V30.2705C24.3661 29.8498 24.025 29.5088 23.6044 29.5088Z" fill="#3680DB"/>
<path d="M0.761719 26.7703C0.561387 26.7703 0.364863 26.8518 0.223184 26.9934C0.0815039 27.1351 0 27.3317 0 27.532C0 27.7331 0.0814277 27.9288 0.223184 28.0705C0.364939 28.2122 0.561387 28.2937 0.761719 28.2937C0.962051 28.2937 1.15857 28.2122 1.30018 28.0705C1.44186 27.9288 1.52344 27.7323 1.52344 27.532C1.52344 27.3317 1.44193 27.1351 1.30018 26.9934C1.15857 26.8518 0.962051 26.7703 0.761719 26.7703Z" fill="#3680DB"/>
</g>

</symbol><symbol id="icon-delivery" viewBox="0 0 50 33">
<path d="M14.1432 25.502C13.2511 25.502 12.5253 26.2408 12.5253 27.149C12.5253 28.0572 13.2511 28.796 14.1432 28.796C15.0354 28.796 15.7612 28.0572 15.7612 27.149C15.7612 26.2408 15.0354 25.502 14.1432 25.502Z" fill="#3680DB"/>
<path d="M41.7013 25.502C40.8092 25.502 40.0834 26.2408 40.0834 27.149C40.0834 28.0572 40.8092 28.796 41.7013 28.796C42.5935 28.796 43.3193 28.0572 43.3193 27.149C43.3193 26.2408 42.5935 25.502 41.7013 25.502Z" fill="#3680DB"/>
<path d="M32.5161 22.1018H20.825C20.3927 22.1018 20.0421 22.4586 20.0421 22.8988C20.0421 23.339 20.3926 23.6957 20.825 23.6957H32.5161C32.9484 23.6957 33.299 23.339 33.299 22.8988C33.299 22.4586 32.9485 22.1018 32.5161 22.1018Z" fill="#3680DB"/>
<path d="M4.03179 18.416C3.81889 18.416 3.61163 18.5114 3.46171 18.6771C3.31091 18.8429 3.22534 19.0728 3.22534 19.3071C3.22534 19.5415 3.31091 19.7714 3.46171 19.9371C3.61163 20.1038 3.81897 20.1982 4.03179 20.1982C4.24389 20.1982 4.45115 20.1038 4.60196 19.9371C4.75196 19.7714 4.83824 19.5415 4.83824 19.3071C4.83824 19.0728 4.75204 18.8429 4.60196 18.6771C4.45115 18.5114 4.24381 18.416 4.03179 18.416Z" fill="#3680DB"/>
<path d="M46.4999 13.649L45.2051 8.37681C45.5591 8.30026 45.8247 7.98056 45.8247 7.59754V6.74749C45.8247 4.90186 44.3496 3.40039 42.5366 3.40039H36.6389V1.64701C36.6389 0.738809 35.9132 0 35.021 0H4.95821C4.06602 0 3.34024 0.738809 3.34024 1.64701V16.0981C3.34024 16.5382 3.69073 16.8951 4.12315 16.8951C4.55548 16.8951 4.90606 16.5383 4.90606 16.0981V1.64701C4.90606 1.61768 4.9294 1.59393 4.95821 1.59393H35.0209C35.0497 1.59393 35.073 1.61768 35.073 1.64701V16.0983C35.073 16.5384 35.4235 16.8953 35.8559 16.8953C36.2883 16.8953 36.6388 16.5385 36.6388 16.0983V15.1949H45.8741C45.8749 15.1949 45.8755 15.1951 45.8762 15.1951C45.8769 15.1951 45.8776 15.195 45.8783 15.195C47.0147 15.1958 47.9797 15.9551 48.3111 17.0013H45.8768C45.4444 17.0013 45.0938 17.3581 45.0938 17.7983V19.4984C45.0938 20.8753 46.1942 21.9955 47.5469 21.9955H48.4342V25.5019H46.3871C45.7146 23.5254 43.8688 22.1016 41.7014 22.1016C39.5339 22.1016 37.688 23.5254 37.0156 25.5019H36.6386V19.4983C36.6386 19.0582 36.2882 18.7013 35.8557 18.7013C35.4234 18.7013 35.0728 19.0581 35.0728 19.4983V25.5017H18.8298C18.1574 23.5252 16.3116 22.1014 14.1441 22.1014C11.9766 22.1014 10.1307 23.5252 9.45832 25.5017H4.95821C4.9294 25.5017 4.90606 25.478 4.90606 25.4486V23.6954H8.29855C8.73088 23.6954 9.08146 23.3386 9.08146 22.8984C9.08146 22.4582 8.73097 22.1014 8.29855 22.1014H0.782912C0.350587 22.1014 0 22.4582 0 22.8984C0 23.3386 0.350489 23.6954 0.782912 23.6954H3.34034V25.4486C3.34034 26.3568 4.06612 27.0956 4.95831 27.0956H9.18723C9.18703 27.1133 9.18586 27.1309 9.18586 27.1487C9.18586 29.9318 11.4102 32.1959 14.1441 32.1959C16.878 32.1959 19.1023 29.9318 19.1023 27.1487C19.1023 27.1308 19.1011 27.1133 19.1009 27.0956H36.7445C36.7443 27.1133 36.7431 27.1309 36.7431 27.1487C36.7431 29.9318 38.9675 32.1959 41.7014 32.1959C44.4352 32.1959 46.6596 29.9318 46.6596 27.1487C46.6596 27.1308 46.6584 27.1133 46.6582 27.0956H49.2171C49.6494 27.0956 50 26.7389 50 26.2987V17.7981C50.0001 15.6994 48.4789 13.9556 46.4999 13.649ZM36.6389 4.99421H42.5366C43.4863 4.99421 44.259 5.78074 44.259 6.74749V6.80058H36.6389V4.99421ZM36.6389 13.6011V8.3944H43.5955L44.8742 13.6011H36.6389ZM14.1441 30.6023C12.2735 30.6023 10.7516 29.0532 10.7516 27.1489C10.7516 25.2446 12.2735 23.6956 14.1441 23.6956C16.0147 23.6956 17.5366 25.2446 17.5366 27.1489C17.5366 29.0532 16.0147 30.6023 14.1441 30.6023ZM41.7015 30.6023C39.8309 30.6023 38.3091 29.0532 38.3091 27.1489C38.3091 25.2446 39.8309 23.6956 41.7015 23.6956C43.5722 23.6956 45.094 25.2446 45.094 27.1489C45.094 29.0532 43.5722 30.6023 41.7015 30.6023ZM48.4344 20.4015H47.5471C47.0578 20.4015 46.6598 19.9963 46.6598 19.4983V18.5951H48.4343V20.4015H48.4344Z" fill="#3680DB"/>
</symbol><symbol id="icon-electrical" viewBox="0 0 40 40">
<path d="M22.8125 16.4062H17.1875C16.756 16.4062 16.4062 16.7561 16.4062 17.1875V22.8125C16.4062 23.2439 16.756 23.5938 17.1875 23.5938H22.8125C23.244 23.5938 23.5938 23.2439 23.5938 22.8125V17.1875C23.5938 16.7561 23.244 16.4062 22.8125 16.4062ZM22.0312 22.0312H17.9688V17.9688H22.0312V22.0312Z" fill="#3680DB"/>
<path d="M37.3438 4.21875C35.8791 4.21875 34.6875 5.41031 34.6875 6.875C34.6875 8.33969 35.8791 9.53125 37.3438 9.53125C38.8084 9.53125 40 8.33969 40 6.875C40 5.41031 38.8084 4.21875 37.3438 4.21875ZM37.3438 7.96875C36.7406 7.96875 36.25 7.47813 36.25 6.875C36.25 6.27187 36.7406 5.78125 37.3438 5.78125C37.9469 5.78125 38.4375 6.27187 38.4375 6.875C38.4375 7.47813 37.9469 7.96875 37.3438 7.96875Z" fill="#3680DB"/>
<path d="M33.3272 6.32022C33.1819 6.17498 32.9804 6.09131 32.7749 6.09131C32.5687 6.09131 32.3671 6.1749 32.2218 6.32022C32.0765 6.46553 31.9937 6.66709 31.9937 6.87256C31.9937 7.07803 32.0765 7.27959 32.2218 7.4249C32.3679 7.57014 32.5687 7.65381 32.7749 7.65381C32.9804 7.65381 33.1819 7.57022 33.3272 7.4249C33.4726 7.27959 33.5562 7.07803 33.5562 6.87256C33.5562 6.66709 33.4726 6.46553 33.3272 6.32022Z" fill="#3680DB"/>
<path d="M32.4637 20.7812C32.7981 21.8659 33.8097 22.6562 35.0025 22.6562C36.4672 22.6562 37.6588 21.4647 37.6588 20C37.6588 18.5353 36.4671 17.3438 35.0025 17.3438C33.8096 17.3438 32.7981 18.1341 32.4637 19.2188H27.6563V13.125C27.6563 12.6936 27.3066 12.3438 26.8751 12.3438H25.6251V7.65391H30.0018C30.4333 7.65391 30.7831 7.30406 30.7831 6.87266C30.7831 6.44125 30.4333 6.09141 30.0018 6.09141H24.8438C24.4124 6.09141 24.0626 6.44125 24.0626 6.87266V12.3438H20.7813V7.53648C21.8659 7.20203 22.6563 6.19055 22.6563 4.99766C22.6563 3.53297 21.4648 2.34141 20.0001 2.34141C18.5354 2.34141 17.3438 3.53297 17.3438 4.99766C17.3438 6.19055 18.1343 7.20211 19.2188 7.53648V12.3438H13.1251C12.6936 12.3438 12.3439 12.6936 12.3439 13.125V14.375H7.65393V5.19578C8.73971 4.86211 9.53135 3.85 9.53135 2.65625C9.53135 1.19156 8.33979 0 6.8751 0C5.41041 0 4.21885 1.19156 4.21885 2.65625C4.21885 3.84828 5.00815 4.85922 6.09143 5.19437V15.1562C6.09143 15.5877 6.4412 15.9375 6.87268 15.9375H12.3439V19.2188H7.53651C7.20205 18.1341 6.19049 17.3438 4.99768 17.3438C3.53299 17.3438 2.34143 18.5353 2.34143 20C2.34143 21.4647 3.53299 22.6562 4.99768 22.6562C6.19057 22.6562 7.20213 21.8659 7.53651 20.7812H12.3439V26.875C12.3439 27.3064 12.6936 27.6562 13.1251 27.6562H14.3751V32.3461H9.99838C9.5669 32.3461 9.21713 32.6959 9.21713 33.1273C9.21713 33.5588 9.5669 33.9086 9.99838 33.9086H15.1564C15.5878 33.9086 15.9376 33.5588 15.9376 33.1273V27.6562H19.2188V32.4635C18.1343 32.798 17.3438 33.8095 17.3438 35.0023C17.3438 36.467 18.5354 37.6586 20.0001 37.6586C21.4648 37.6586 22.6563 36.467 22.6563 35.0023C22.6563 33.8095 21.8659 32.7979 20.7813 32.4635V27.6562H26.8751C27.3066 27.6562 27.6563 27.3064 27.6563 26.875V25.625H32.3463V34.8042C31.2605 35.1379 30.4688 36.15 30.4688 37.3438C30.4688 38.8084 31.6604 40 33.1251 40C34.5898 40 35.7813 38.8084 35.7813 37.3438C35.7813 36.1517 34.9921 35.1408 33.9088 34.8056V24.8438C33.9088 24.4123 33.559 24.0625 33.1275 24.0625H27.6563V20.7812H32.4637ZM35.0025 18.9062C35.6056 18.9062 36.0963 19.3969 36.0963 20C36.0963 20.6031 35.6056 21.0938 35.0025 21.0938C34.3994 21.0938 33.9088 20.6031 33.9088 20C33.9088 19.3969 34.3994 18.9062 35.0025 18.9062ZM6.8751 3.75C6.27198 3.75 5.78135 3.25937 5.78135 2.65625C5.78135 2.05312 6.27198 1.5625 6.8751 1.5625C7.47823 1.5625 7.96885 2.05312 7.96885 2.65625C7.96885 3.25937 7.47823 3.75 6.8751 3.75ZM4.99768 21.0938C4.39456 21.0938 3.90393 20.6031 3.90393 20C3.90393 19.3969 4.39456 18.9062 4.99768 18.9062C5.60081 18.9062 6.09143 19.3969 6.09143 20C6.09143 20.6031 5.60081 21.0938 4.99768 21.0938ZM18.9063 4.99766C18.9063 4.39453 19.397 3.90391 20.0001 3.90391C20.6032 3.90391 21.0938 4.39453 21.0938 4.99766C21.0938 5.60078 20.6032 6.09141 20.0001 6.09141C19.397 6.09141 18.9063 5.60078 18.9063 4.99766ZM21.0938 35.0023C21.0938 35.6055 20.6032 36.0961 20.0001 36.0961C19.397 36.0961 18.9063 35.6055 18.9063 35.0023C18.9063 34.3992 19.397 33.9086 20.0001 33.9086C20.6032 33.9086 21.0938 34.3992 21.0938 35.0023ZM26.0938 26.0938H13.9064V13.9062H26.0938V26.0938ZM33.1251 36.25C33.7282 36.25 34.2188 36.7406 34.2188 37.3438C34.2188 37.9469 33.7282 38.4375 33.1251 38.4375C32.522 38.4375 32.0313 37.9469 32.0313 37.3438C32.0313 36.7406 32.522 36.25 33.1251 36.25Z" fill="#3680DB"/>
<path d="M2.65625 30.4688C1.19156 30.4688 0 31.6603 0 33.125C0 34.5897 1.19156 35.7812 2.65625 35.7812C4.12094 35.7812 5.3125 34.5897 5.3125 33.125C5.3125 31.6603 4.12094 30.4688 2.65625 30.4688ZM2.65625 34.2188C2.05312 34.2188 1.5625 33.7281 1.5625 33.125C1.5625 32.5219 2.05312 32.0312 2.65625 32.0312C3.25938 32.0312 3.75 32.5219 3.75 33.125C3.75 33.7281 3.25938 34.2188 2.65625 34.2188Z" fill="#3680DB"/>
<path d="M7.77891 32.575C7.63359 32.4297 7.43203 32.3461 7.22656 32.3461C7.02109 32.3461 6.81953 32.4296 6.67422 32.575C6.52891 32.7203 6.44531 32.9218 6.44531 33.1274C6.44531 33.3328 6.52891 33.5344 6.67422 33.6796C6.81953 33.825 7.02109 33.9086 7.22656 33.9086C7.43203 33.9086 7.63359 33.825 7.77891 33.6796C7.92422 33.5344 8.00781 33.3328 8.00781 33.1274C8.00781 32.9218 7.92422 32.7203 7.77891 32.575Z" fill="#3680DB"/>
</symbol><symbol id="icon-electricity" viewBox="0 0 40 40">
<path d="M24.1164 15.1983L27.855 11.4604C28.3248 10.9907 28.3248 10.2292 27.855 9.75944L27.1777 9.08288L29.7855 6.47502C30.2551 6.00552 30.2551 5.24416 29.7855 4.77458C29.316 4.30508 28.5547 4.30508 28.0851 4.77458L25.4776 7.38204L25.4775 7.38188L22.7552 4.66043L25.3631 2.05257C25.8327 1.58307 25.8327 0.821705 25.3631 0.352125C24.8936 -0.117375 24.1322 -0.117375 23.6626 0.352125L21.0552 2.95959L21.055 2.95942L20.3777 2.28287C19.9069 1.81048 19.1436 1.81513 18.6775 2.28287L14.9388 6.02164C12.6616 8.29883 12.4619 11.7918 14.1676 14.2701L2.56361 25.8741C2.09387 26.3431 2.09387 27.1046 2.56361 27.5744C3.03094 28.0416 3.79271 28.0454 4.26381 27.5744L15.8678 15.9703C18.3405 17.6682 21.8291 17.4856 24.1164 15.1983ZM16.6398 7.72184L19.528 4.83366L25.3043 10.61L22.4162 13.4982C20.8283 15.0844 18.2461 15.1046 16.6398 13.4982C15.0375 11.8959 15.0477 9.31214 16.6398 7.72184Z" fill="#3680DB"/>
<path d="M37.4367 12.4255C36.9669 11.9558 36.2062 11.9558 35.7365 12.4255L24.1324 24.0296C21.6598 22.3317 18.1712 22.5142 15.8839 24.8015L12.1452 28.5394C11.6755 29.0091 11.6755 29.7707 12.1452 30.2405L12.8226 30.917V30.917L10.2147 33.5249C9.74515 33.9944 9.74515 34.7558 10.2147 35.2254C10.6843 35.6949 11.4456 35.6949 11.9152 35.2254L14.5226 32.6179L14.5228 32.6181L17.2451 35.3394V35.3395L14.6372 37.9474C14.1676 38.4169 14.1676 39.1782 14.6372 39.6478C15.1068 40.1174 15.8681 40.1173 16.3376 39.6478L18.9451 37.0403L18.9453 37.0405L19.6226 37.717C20.0934 38.1894 20.8567 38.1847 21.3228 37.717L25.0615 33.9783C27.3413 31.6984 27.5367 28.2055 25.8326 25.7298L37.4367 14.1258C37.9064 13.6569 37.9064 12.8954 37.4367 12.4255ZM23.3605 32.2781L20.4723 35.1663C19.6851 34.379 15.4866 30.1805 14.6959 29.3898L17.5841 26.5016C19.1885 24.8991 21.7695 24.9107 23.3605 26.5016C24.9628 28.1041 24.9525 30.6878 23.3605 32.2781Z" fill="#3680DB"/>
</symbol><symbol id="icon-engineering" viewBox="0 0 40 40">
<g clip-path="url(#clip0)">
<path d="M7.03522 30.9335C6.47522 30.9335 5.93689 31.0733 5.45929 31.3358C2.94342 28.1107 1.5625 24.1043 1.5625 20C1.5625 9.83337 9.83337 1.5625 20 1.5625C21.236 1.5625 22.4713 1.68549 23.6719 1.9281C24.0942 2.01355 24.5068 1.74011 24.5923 1.31714C24.6777 0.894165 24.4043 0.482178 23.9813 0.396423C22.6791 0.133362 21.3397 0 20 0C14.6579 0 9.63531 2.08038 5.85785 5.85785C2.08038 9.63531 0 14.6579 0 20C0 24.4937 1.52588 28.8791 4.30389 32.3947C3.94623 32.9291 3.75397 33.5571 3.75397 34.2148C3.75397 35.0912 4.09546 35.9152 4.71527 36.5347C5.33478 37.1545 6.15875 37.496 7.03522 37.496C7.91168 37.496 8.73566 37.1545 9.35547 36.5347C9.97528 35.9152 10.3165 35.0909 10.3165 34.2145C10.3165 33.3383 9.97528 32.514 9.35547 31.8945C8.73566 31.2747 7.91168 30.9335 7.03522 30.9335ZM8.25043 35.43C7.92603 35.7547 7.4942 35.9335 7.03522 35.9335C6.57623 35.9335 6.14471 35.7547 5.82001 35.43C5.4953 35.1053 5.31647 34.6738 5.31647 34.2148C5.31647 33.7555 5.4953 33.324 5.82001 32.9993C6.14441 32.6746 6.57623 32.496 7.03522 32.496C7.4942 32.496 7.92572 32.6749 8.25043 32.9993C8.57513 33.324 8.75397 33.7555 8.75397 34.2148C8.75397 34.6738 8.57513 35.1053 8.25043 35.43Z" fill="#3680DB"/>
<path d="M35.6954 7.60437C36.5447 6.33026 36.4083 4.58832 35.285 3.46497C34.6651 2.84546 33.8412 2.50397 32.9647 2.50397C32.0882 2.50397 31.2643 2.84546 30.6444 3.46497C30.0246 4.08478 29.6835 4.90875 29.6835 5.78522C29.6835 6.66168 30.0246 7.48566 30.6444 8.10547C31.2643 8.72528 32.0882 9.06647 32.9647 9.06647C33.5247 9.06647 34.063 8.9267 34.5406 8.66425C37.0565 11.8896 38.4374 15.8957 38.4374 20C38.4374 30.1666 30.1665 38.4375 19.9999 38.4375C18.7762 38.4375 17.5524 38.317 16.3631 38.0789C15.9402 37.9944 15.5285 38.2687 15.4436 38.6917C15.3591 39.115 15.6335 39.5264 16.0564 39.6112C17.3464 39.8691 18.6733 40 19.9999 40C25.342 40 30.3646 37.9196 34.1421 34.1422C37.9195 30.3647 39.9999 25.3421 39.9999 20C39.9999 15.506 38.4737 11.1203 35.6954 7.60437ZM31.7495 7.00073C31.4248 6.67603 31.246 6.24451 31.246 5.78522C31.246 5.32623 31.4248 4.89471 31.7495 4.57001C32.0739 4.2453 32.5057 4.06647 32.9647 4.06647C33.4237 4.06647 33.8555 4.2453 34.1802 4.57001C34.8501 5.24017 34.8501 6.33057 34.1802 7.00073C33.8555 7.32513 33.4237 7.50397 32.9647 7.50397C32.5054 7.50397 32.0739 7.32513 31.7495 7.00073Z" fill="#3680DB"/>
<path d="M16.776 33.4375C16.776 33.869 17.126 34.2188 17.5573 34.2188H22.4422C22.8737 34.2188 23.2234 33.869 23.2234 33.4375V31.9229C24.2507 31.6464 25.2327 31.2393 26.1556 30.7077L27.2249 31.777C27.3714 31.9235 27.5701 32.0059 27.7776 32.0059C27.9845 32.0059 28.1835 31.9235 28.33 31.7767L31.7827 28.3215C32.0876 28.0164 32.0876 27.5217 31.7827 27.2168L30.7146 26.1487C31.2462 25.2258 31.6533 24.2438 31.9298 23.2166H33.4386C33.8701 23.2166 34.2198 22.8668 34.2198 22.4353V17.5504C34.2198 17.1188 33.8701 16.7691 33.4386 16.7691H31.9295C31.653 15.7422 31.2462 14.7601 30.7146 13.8373L31.7769 12.775C31.9234 12.6285 32.0058 12.4295 32.0058 12.2223C32.0055 12.0151 31.9231 11.8161 31.7766 11.6696L28.3211 8.21686C28.0162 7.91199 27.5215 7.91199 27.2164 8.21716L26.1556 9.27826C25.2327 8.74664 24.2507 8.33954 23.2234 8.06305V6.5625C23.2234 6.13098 22.8737 5.78125 22.4422 5.78125H17.5573C17.126 5.78125 16.776 6.13098 16.776 6.5625V8.06335C15.7491 8.33954 14.767 8.74664 13.8442 9.27826L12.7831 8.21716C12.4782 7.91229 11.9835 7.91199 11.6783 8.21686L8.22315 11.6699C8.07636 11.8164 7.99396 12.0151 7.99396 12.2223C7.99396 12.4295 8.07636 12.6285 8.22284 12.775L9.28516 13.8373C8.75354 14.7601 8.34644 15.7419 8.06995 16.7691H6.5639C6.13239 16.7691 5.78265 17.1188 5.78265 17.55L5.77991 22.435C5.7796 22.6422 5.862 22.8412 6.00848 22.9877C6.15497 23.1342 6.35364 23.2166 6.56116 23.2166H8.06995C8.34644 24.2438 8.75354 25.2258 9.28516 26.1487L8.21704 27.2168C7.91217 27.5217 7.91187 28.0164 8.21704 28.3215L11.6698 31.7767C11.8163 31.9232 12.015 32.0059 12.2222 32.0059H12.2225C12.4297 32.0059 12.6284 31.9235 12.7748 31.777L13.8439 30.7077C14.767 31.2393 15.7491 31.6464 16.776 31.9229V33.4375ZM14.1503 29.0646C13.8411 28.8647 13.4343 28.9081 13.1737 29.1684L12.2225 30.1196L9.87415 27.7695L10.8245 26.8188C11.0848 26.5585 11.1281 26.1517 10.9282 25.8426C10.2199 24.7464 9.72186 23.5449 9.44843 22.2711C9.37091 21.9113 9.05292 21.6541 8.68457 21.6541H7.34271L7.34454 18.3316H8.68457C9.05292 18.3316 9.37091 18.0746 9.44843 17.7145C9.72186 16.441 10.2199 15.2396 10.9282 14.1434C11.1281 13.8342 11.0848 13.4274 10.8245 13.1671L9.88025 12.2226L12.2304 9.87427L13.1737 10.8179C13.4343 11.0782 13.8408 11.1212 14.1503 10.9216C15.2462 10.2133 16.4476 9.71527 17.7214 9.44183C18.0812 9.36432 18.3385 9.04602 18.3385 8.67798V7.34375H21.6609V8.67767C21.6609 9.04602 21.9179 9.36432 22.278 9.44153C23.5515 9.71527 24.7533 10.213 25.8492 10.9213C26.1583 11.1212 26.5651 11.0782 26.8254 10.8176L27.769 9.87427L30.1192 12.2226L29.175 13.1668C28.9144 13.4274 28.8713 13.8342 29.0712 14.1434C29.7795 15.2396 30.2773 16.441 30.551 17.7145C30.6282 18.0746 30.9465 18.3316 31.3149 18.3316H32.6573V21.6541H31.3149C30.9465 21.6541 30.6285 21.9113 30.551 22.2711C30.2776 23.5446 29.7795 24.7464 29.0712 25.8423C28.8713 26.1517 28.9147 26.5585 29.175 26.8188L30.1253 27.7692L27.777 30.1193L26.8257 29.1684C26.5651 28.9078 26.1583 28.8647 25.8492 29.0646C24.753 29.7729 23.5515 30.2707 22.278 30.5444C21.9179 30.6219 21.6609 30.9399 21.6609 31.3083V32.6562H18.3385V31.3083C18.3385 30.9402 18.0812 30.6219 17.7214 30.5444C16.4479 30.271 15.2465 29.7729 14.1503 29.0646Z" fill="#3680DB"/>
<path d="M26.4554 20C26.4554 16.4404 23.5596 13.5446 20.0001 13.5446C16.4405 13.5446 13.5447 16.4404 13.5447 20C13.5447 23.5596 16.4405 26.4554 20.0001 26.4554C23.5596 26.4554 26.4554 23.5596 26.4554 20ZM15.1072 20C15.1072 17.3019 17.302 15.1071 20.0001 15.1071C22.6981 15.1071 24.8929 17.3022 24.8929 20C24.8929 22.6978 22.6981 24.8929 20.0001 24.8929C17.302 24.8929 15.1072 22.6981 15.1072 20Z" fill="#3680DB"/>
<path d="M27.1937 2.95471C27.3994 2.95471 27.6008 2.87109 27.7461 2.72583C27.8914 2.57965 27.975 2.37823 27.975 2.17255C27.975 1.96808 27.8917 1.76636 27.7461 1.62018C27.6008 1.47491 27.3994 1.3913 27.1937 1.3913C26.9874 1.3913 26.7869 1.47491 26.6417 1.62018C26.4961 1.76636 26.4125 1.96716 26.4125 2.17255C26.4125 2.37885 26.4961 2.57965 26.6417 2.72583C26.7869 2.87109 26.9874 2.95471 27.1937 2.95471Z" fill="#3680DB"/>
<path d="M12.8406 37.0594C12.6352 37.0594 12.4335 37.143 12.2882 37.2883C12.1429 37.4335 12.0593 37.6353 12.0593 37.8406C12.0593 38.0469 12.1429 38.2477 12.2882 38.393C12.4335 38.5383 12.6352 38.6219 12.8406 38.6219C13.046 38.6219 13.2477 38.5383 13.3929 38.393C13.5382 38.2477 13.6218 38.046 13.6218 37.8406C13.6218 37.6353 13.5382 37.4335 13.3929 37.2883C13.2477 37.143 13.046 37.0594 12.8406 37.0594Z" fill="#3680DB"/>
</g>

</symbol><symbol id="icon-quality" viewBox="0 0 38 39">
<g clip-path="url(#clip0)">
<path d="M7.94116 14.4727C7.94116 20.7729 12.9353 25.8985 19.074 25.8985C25.2127 25.8985 30.2068 20.7729 30.2068 14.4727C30.2068 8.17242 25.2127 3.04688 19.074 3.04688C12.9353 3.04688 7.94116 8.17242 7.94116 14.4727ZM19.074 4.57032C24.3943 4.57032 28.7224 9.01239 28.7224 14.4727C28.7224 19.933 24.3943 24.375 19.074 24.375C13.7537 24.375 9.42554 19.933 9.42554 14.4727C9.42554 9.01239 13.7537 4.57032 19.074 4.57032Z" fill="#3680DB"/>
<path d="M12.2003 13.1146L15.0772 16.0238L14.4153 20.1123C14.3692 20.3971 14.4837 20.6839 14.7113 20.8535C14.9386 21.0231 15.2398 21.046 15.4895 20.9133L19.0737 19.0031L22.6577 20.9133C22.9053 21.0452 23.2065 21.0246 23.4358 20.8535C23.6634 20.6839 23.7779 20.3971 23.7318 20.1123L23.0699 16.0238L25.9468 13.1146C26.1471 12.9123 26.2187 12.6112 26.1317 12.3366C26.0448 12.0622 25.8143 11.862 25.5363 11.8188L21.5438 11.202L19.7373 7.49427C19.6118 7.2363 19.3546 7.07324 19.0737 7.07324C18.7925 7.07324 18.5356 7.2363 18.4098 7.49427L16.6033 11.202L12.6109 11.8188C12.3328 11.8617 12.1023 12.0622 12.0154 12.3366C11.9284 12.6112 12.0003 12.9123 12.2003 13.1146ZM17.2055 12.6496C17.4444 12.6127 17.6508 12.4588 17.7589 12.2372L19.0737 9.53812L20.3885 12.2372C20.4966 12.4588 20.703 12.6127 20.9419 12.6496L23.8478 13.0986L21.7537 15.2156C21.5818 15.3897 21.5029 15.6387 21.5423 15.8833L22.0242 18.8591L19.4155 17.4689C19.3085 17.4118 19.1911 17.3832 19.0737 17.3832C18.9563 17.3832 18.8389 17.4118 18.7316 17.4689L16.1229 18.8591L16.6048 15.8833C16.6445 15.6387 16.5656 15.3897 16.3934 15.2156L14.2996 13.0986L17.2055 12.6496Z" fill="#3680DB"/>
<path d="M19.8164 0.76172C19.8164 1.18245 19.4842 1.52344 19.0742 1.52344C18.6643 1.52344 18.332 1.18245 18.332 0.76172C18.332 0.340989 18.6643 0 19.0742 0C19.4842 0 19.8164 0.340989 19.8164 0.76172Z" fill="#3680DB"/>
<path d="M15.5761 0.449058C9.33277 2.08467 4.97241 7.85143 4.97241 14.4727C4.97241 18.5851 6.65712 22.4601 9.61457 25.2044L5.14317 33.292C4.99937 33.5523 5.01735 33.8749 5.18898 34.1165C5.36061 34.3584 5.65401 34.4747 5.93958 34.4137L11.0175 33.3315L12.8022 38.4931C12.899 38.774 13.1469 38.9707 13.4363 38.9971C13.7256 39.0236 14.003 38.874 14.1466 38.6148L19.074 29.7241L24.0011 38.6148C24.1339 38.8543 24.3809 38.9998 24.6459 38.9998C24.6677 38.9998 24.6897 38.9989 24.7114 38.9971C25.0008 38.9707 25.2487 38.7737 25.3458 38.4931L27.1302 33.3315L32.2081 34.4137C32.4934 34.4744 32.7871 34.3581 32.9587 34.1165C33.1306 33.8749 33.1483 33.5523 33.0045 33.292L28.5331 25.2044C31.4906 22.4601 33.1753 18.5851 33.1753 14.4727C33.1753 7.85143 28.8149 2.08467 22.5718 0.449058C22.1744 0.344916 21.7705 0.590987 21.669 0.998626C21.5676 1.40627 21.8073 1.82105 22.2045 1.92519C27.7901 3.38852 31.6912 8.54828 31.6912 14.4727C31.6912 21.6832 25.9853 27.422 19.074 27.422C12.1577 27.422 6.45679 21.6784 6.45679 14.4727C6.45679 8.54828 10.3576 3.38852 15.9432 1.92519C16.3404 1.82105 16.5801 1.40627 16.4789 0.998626C16.3775 0.590987 15.9736 0.344916 15.5761 0.449058ZM13.6586 36.4144L12.2001 32.1961C12.076 31.8373 11.713 31.6275 11.3497 31.7049L7.24363 32.5799L10.7824 26.1791C12.8457 27.7186 15.2888 28.6565 17.8294 28.8886L13.6586 36.4144ZM26.798 31.7049C26.435 31.6275 26.0717 31.8373 25.9476 32.1961L24.4894 36.4144L20.3183 28.8886C22.8592 28.6565 25.302 27.7186 27.3656 26.1791L30.9044 32.5799L26.798 31.7049Z" fill="#3680DB"/>
</g>

</symbol><symbol id="icon-staff" viewBox="0 0 38 39">
<path d="M20.508 15.1667C21.0077 15.1667 21.4128 14.751 21.4128 14.2381C21.4128 13.7253 21.0077 13.3096 20.508 13.3096C20.0083 13.3096 19.6033 13.7253 19.6033 14.2381C19.6033 14.751 20.0083 15.1667 20.508 15.1667Z" fill="black"/>
<path d="M12.6665 15.1667C13.1662 15.1667 13.5712 14.751 13.5712 14.2381C13.5712 13.7253 13.1662 13.3096 12.6665 13.3096C12.1668 13.3096 11.7617 13.7253 11.7617 14.2381C11.7617 14.751 12.1668 15.1667 12.6665 15.1667Z" fill="black"/>
<path d="M15.3812 5.5715H17.7939C18.0339 5.5715 18.264 5.47367 18.4337 5.29953C18.6033 5.12539 18.6987 4.8892 18.6987 4.64293C18.6987 4.39665 18.6033 4.16047 18.4337 3.98633C18.264 3.81219 18.0339 3.71436 17.7939 3.71436H15.3812C15.1412 3.71436 14.9111 3.81219 14.7414 3.98633C14.5718 4.16047 14.4764 4.39665 14.4764 4.64293C14.4764 4.8892 14.5718 5.12539 14.7414 5.29953C14.9111 5.47367 15.1412 5.5715 15.3812 5.5715Z" fill="#3680DB"/>
<path d="M37.2064 27.6466L36.2448 27.5244L36.0371 27.0099L36.6328 26.2257C36.7685 26.0471 36.8359 25.8237 36.8223 25.5976C36.8088 25.3715 36.7151 25.1583 36.5591 24.9981L34.3864 22.7683C34.2303 22.6081 34.0226 22.512 33.8023 22.4981C33.582 22.4842 33.3643 22.5534 33.1903 22.6927L32.4262 23.304L31.9249 23.0909L31.8059 22.1039C31.7788 21.8791 31.6726 21.6722 31.5072 21.5222C31.3418 21.3722 31.1287 21.2894 30.908 21.2894H27.8356C27.6149 21.2894 27.4018 21.3722 27.2364 21.5223C27.0711 21.6723 26.9648 21.8791 26.9377 22.1039L26.8187 23.0911L26.3173 23.3042L25.5533 22.6929C25.3792 22.5536 25.1616 22.4844 24.9413 22.4983C24.721 22.5122 24.5133 22.6083 24.3572 22.7685L22.1845 24.9984C22.0284 25.1586 21.9348 25.3718 21.9212 25.5979C21.9077 25.8239 21.9751 26.0473 22.1108 26.226L22.7064 27.0101L22.4988 27.5246L21.5372 27.6467C21.3182 27.6746 21.1166 27.7836 20.9704 27.9533C20.8242 28.1231 20.7436 28.3418 20.7436 28.5683V29.3907L16.5873 33.1233L11.3301 28.4024L13.2282 27.818C13.4146 27.7606 13.578 27.6431 13.6942 27.4829C13.8103 27.3227 13.873 27.1283 13.873 26.9286V24.73C14.8155 25.1451 15.7655 25.381 16.5873 25.381C18.1341 25.381 20.1339 24.5459 21.682 23.2535C23.0613 22.1022 24.0049 20.669 24.4456 19.096C26.1335 18.5749 27.1429 16.0129 27.1429 14.5476C27.1429 13.8951 26.9572 13.3754 26.5912 13.0025C26.2003 12.6045 25.7078 12.4576 25.1641 12.4053C25.6638 11.7939 25.9374 11.0211 25.9365 10.2231V5.88095C25.9348 4.32177 25.3305 2.82697 24.2563 1.72446C23.182 0.621953 21.7256 0.00178179 20.2064 0H12.9683C11.4491 0.00178179 9.9926 0.621953 8.91836 1.72446C7.84413 2.82697 7.23986 4.32177 7.23812 5.88095V10.2231C7.23726 11.0211 7.5108 11.7939 8.01056 12.4053C7.46703 12.4576 6.97424 12.6046 6.58345 13.0025C6.2174 13.3754 6.03178 13.8951 6.03178 14.5476C6.03178 16.0129 7.04119 18.5749 8.72902 19.096C9.16979 20.6693 10.1134 22.1022 11.4926 23.2535C11.677 23.4074 11.8679 23.5546 12.0635 23.6946V26.2373L2.36387 29.2242C1.67886 29.4316 1.078 29.8618 0.651697 30.4499C0.225396 31.038 -0.00329212 31.7523 3.58135e-05 32.4853V38.0714C3.58171e-05 38.3177 0.0953586 38.5539 0.265034 38.728C0.43471 38.9022 0.664839 39 0.904797 39C1.14475 39 1.37488 38.9022 1.54456 38.728C1.71424 38.5539 1.80956 38.3177 1.80956 38.0714V32.4853C1.81106 32.1529 1.91614 31.8297 2.10942 31.563C2.30271 31.2963 2.57407 31.1001 2.88381 31.003L9.28371 29.0325L15.9917 35.056C16.1566 35.204 16.3682 35.2856 16.5873 35.2856C16.8064 35.2856 17.018 35.204 17.183 35.056L20.7534 31.85C20.7807 32.0524 20.8724 32.2398 21.0142 32.3833C21.156 32.5267 21.3399 32.6181 21.5375 32.6433L22.4991 32.7654L22.7067 33.2799L22.1111 34.0641C21.9754 34.2427 21.908 34.4661 21.9215 34.6922C21.9351 34.9183 22.0287 35.1315 22.1848 35.2917L24.3575 37.5216C24.5136 37.6817 24.7213 37.7778 24.9416 37.7917C25.1619 37.8057 25.3795 37.7365 25.5536 37.5972L26.3176 36.9859L26.819 37.199L26.9379 38.1859C26.9651 38.4106 27.0714 38.6173 27.2367 38.7673C27.402 38.9172 27.615 39 27.8356 39H30.9081C31.1288 39 31.3419 38.9172 31.5073 38.7672C31.6727 38.6172 31.779 38.4103 31.8061 38.1855L31.9251 37.1986L32.4264 36.9855L33.1904 37.5968C33.3645 37.7361 33.5821 37.8053 33.8024 37.7913C34.0227 37.7774 34.2305 37.6813 34.3865 37.5212L36.5592 35.2913C36.7153 35.1311 36.8089 34.9179 36.8225 34.6918C36.8361 34.4657 36.7686 34.2423 36.6329 34.0637L36.0373 33.2795L36.2449 32.765L37.2065 32.6429C37.4255 32.6151 37.627 32.506 37.7732 32.3363C37.9193 32.1666 38 31.948 38 31.7215V28.5681C38 28.3416 37.9193 28.1229 37.7732 27.9532C37.627 27.7834 37.4254 27.6744 37.2064 27.6466ZM9.59307 11.4131C9.43231 11.277 9.30097 11.108 9.2074 10.9168C9.11383 10.7257 9.06009 10.5166 9.04961 10.303C13.989 8.95522 19.1857 8.95522 24.125 10.303C24.1136 10.5241 24.0562 10.7401 23.9565 10.9365C23.8569 11.1329 23.7174 11.3051 23.5475 11.4415C23.3775 11.5779 23.181 11.6753 22.9713 11.7272C22.7616 11.7791 22.5434 11.7842 22.3316 11.7423C20.2916 11.3436 18.4394 11.1443 16.5873 11.1443C14.7353 11.1443 12.8831 11.3436 10.8431 11.7423C10.624 11.7855 10.3982 11.7784 10.1821 11.7215C9.96599 11.6646 9.76482 11.5593 9.59307 11.4131ZM25.3333 14.5476C25.3333 15.1363 25.0677 15.8983 24.7302 16.4766V14.2393C24.9831 14.2471 25.2127 14.2678 25.3086 14.3184C25.328 14.3931 25.3363 14.4704 25.3333 14.5476ZM12.9683 1.85714H20.2064C21.2458 1.85835 22.2424 2.28268 22.9774 3.03702C23.7124 3.79137 24.1258 4.81414 24.127 5.88095V8.38755C19.1768 7.11665 13.9978 7.11665 9.04765 8.38755V5.88095C9.04882 4.81414 9.46227 3.79137 10.1973 3.03702C10.9323 2.28268 11.9288 1.85835 12.9683 1.85714ZM7.86603 14.3184C7.96201 14.2678 8.19159 14.2471 8.44447 14.2393V16.4766C8.10692 15.8983 7.8413 15.1363 7.8413 14.5476C7.8383 14.4704 7.84664 14.3931 7.86603 14.3184ZM10.254 17.0238V13.613C10.9725 13.6868 11.7024 13.437 12.4014 13.3499C12.1831 13.4183 11.9979 13.5689 11.8832 13.7714C11.7684 13.974 11.7326 14.2137 11.7828 14.4423C11.833 14.6708 11.9655 14.8715 12.1539 15.004C12.3422 15.1365 12.5723 15.191 12.7982 15.1566C13.024 15.1222 13.2289 15.0015 13.3716 14.8186C13.5143 14.6357 13.5844 14.4041 13.5678 14.1704C13.5511 13.9367 13.449 13.7181 13.2819 13.5584C13.1148 13.3988 12.895 13.3099 12.6667 13.3095C12.6653 13.3095 12.6638 13.3095 12.6624 13.3095C15.2639 12.9019 17.9107 12.9019 20.5123 13.3095C20.5108 13.3095 20.5094 13.3095 20.508 13.3095C20.2796 13.3096 20.0598 13.3983 19.8925 13.5578C19.7252 13.7172 19.6229 13.9357 19.606 14.1694C19.5891 14.4031 19.6589 14.6347 19.8014 14.8178C19.944 15.0008 20.1487 15.1218 20.3745 15.1565C20.6003 15.1911 20.8305 15.1369 21.019 15.0046C21.2074 14.8723 21.3402 14.6718 21.3907 14.4433C21.4411 14.2147 21.4055 13.9751 21.291 13.7724C21.1765 13.5696 20.9915 13.4188 20.7732 13.3502C21.4699 13.437 22.2064 13.6868 22.9207 13.6133V17.0238C22.9207 21.3123 18.4814 23.5238 16.5873 23.5238C13.7198 23.3149 10.2276 20.6828 10.254 17.0238ZM36.1905 30.9008L35.4995 30.9885C35.3407 31.0087 35.1899 31.0717 35.0626 31.1712C34.9353 31.2706 34.8359 31.403 34.7747 31.5547L34.164 33.0688C34.1028 33.2205 34.0818 33.3862 34.1033 33.5489C34.1249 33.7116 34.188 33.8656 34.2864 33.9951L34.7146 34.5586L33.6722 35.6277L33.1231 35.1883C32.9969 35.0873 32.8469 35.0225 32.6884 35.0004C32.5299 34.9783 32.3684 34.9998 32.2206 35.0626L30.7453 35.6894C30.5975 35.7523 30.4685 35.8542 30.3716 35.9849C30.2747 36.1156 30.2133 36.2703 30.1936 36.4333L30.1084 37.1429H28.6357L28.5502 36.4337C28.5306 36.2707 28.4692 36.116 28.3722 35.9853C28.2753 35.8546 28.1464 35.7526 27.9985 35.6898L26.5233 35.063C26.3754 35.0002 26.214 34.9787 26.0555 35.0008C25.8969 35.0229 25.7469 35.0877 25.6208 35.1887L25.0716 35.6281L24.0296 34.5583L24.4578 33.9948C24.5561 33.8653 24.6193 33.7113 24.6408 33.5486C24.6623 33.3859 24.6414 33.2202 24.5802 33.0685L23.9691 31.5544C23.9079 31.4027 23.8085 31.2703 23.6812 31.1709C23.5539 31.0714 23.4031 31.0084 23.2443 30.9882L22.5533 30.9005V29.3893L23.2443 29.3015C23.4031 29.2814 23.5539 29.2183 23.6812 29.1189C23.8085 29.0194 23.9079 28.8871 23.9691 28.7353L24.5802 27.2212C24.6414 27.0695 24.6623 26.9039 24.6408 26.7411C24.6193 26.5784 24.5561 26.4245 24.4578 26.295L24.0296 25.7314L25.0713 24.6623L25.6204 25.1018C25.7466 25.2027 25.8966 25.2676 26.0551 25.2896C26.2136 25.3117 26.3751 25.2903 26.5229 25.2274L27.9982 24.6003C28.146 24.5374 28.275 24.4354 28.3719 24.3048C28.4688 24.1741 28.5302 24.0194 28.5498 23.8564L28.6353 23.1472H30.1084L30.1939 23.8564C30.2136 24.0194 30.275 24.1741 30.3719 24.3048C30.4688 24.4354 30.5978 24.5374 30.7456 24.6003L32.2209 25.2274C32.3687 25.2903 32.5302 25.3117 32.6887 25.2896C32.8472 25.2676 32.9972 25.2027 33.1234 25.1018L33.6725 24.6623L34.7142 25.7314L34.286 26.295C34.1876 26.4245 34.1245 26.5784 34.103 26.7411C34.0815 26.9039 34.1024 27.0695 34.1636 27.2212L34.7743 28.7353C34.8355 28.8871 34.9349 29.0194 35.0622 29.1189C35.1895 29.2183 35.3403 29.2814 35.4991 29.3015L36.1905 29.3893V30.9008Z" fill="#3680DB"/>
<path d="M29.372 26.3585C28.5185 26.3585 27.6913 26.6623 27.0314 27.218C26.3716 27.7737 25.9199 28.5471 25.7534 29.4063C25.5869 30.2655 25.7158 31.1574 26.1181 31.93C26.5205 32.7026 27.1714 33.3082 27.96 33.6434C28.7487 33.9787 29.6261 34.0229 30.443 33.7686C31.2598 33.5143 31.9654 32.9772 32.4397 32.2488C32.9139 31.5204 33.1273 30.6457 33.0437 29.7739C32.96 28.9021 32.5844 28.087 31.9808 27.4676C31.639 27.1149 31.2324 26.8352 30.7846 26.6449C30.3369 26.4545 29.8567 26.3572 29.372 26.3585ZM30.7017 31.5097C30.4388 31.7796 30.1039 31.9633 29.7392 32.0378C29.3745 32.1122 28.9965 32.074 28.653 31.928C28.3095 31.782 28.0159 31.5347 27.8093 31.2174C27.6027 30.9001 27.4924 30.527 27.4924 30.1454C27.4924 29.7638 27.6027 29.3908 27.8093 29.0735C28.0159 28.7562 28.3095 28.5089 28.653 28.3629C28.9965 28.2169 29.3745 28.1787 29.7392 28.2531C30.1039 28.3276 30.4388 28.5113 30.7017 28.7812C31.0538 29.1433 31.2515 29.6339 31.2515 30.1454C31.2515 30.657 31.0538 31.1476 30.7017 31.5097Z" fill="#3680DB"/>
</symbol></svg>